<svg width="211" height="150" viewBox="0 0 211 150" fill="none" xmlns="http://www.w3.org/2000/svg">
<path d="M134.375 44.5272H142.594C143.213 46.6809 144.507 48.5748 146.283 49.9256C148.059 51.2765 150.222 52.0115 152.448 52.0207H174.524C175.084 52.0197 175.633 51.8549 176.102 51.5462C176.572 51.2376 176.943 50.7983 177.17 50.2816C177.396 49.765 177.47 49.1932 177.38 48.6355C177.291 48.0778 177.043 47.5582 176.666 47.1396L171.674 41.6094L176.666 36.0836C177.044 35.6653 177.292 35.1456 177.382 34.5878C177.472 34.0299 177.399 33.4578 177.172 32.9408C176.946 32.4238 176.575 31.9842 176.105 31.6753C175.635 31.3663 175.087 31.2013 174.526 31.2003H152.45C150.225 31.209 148.063 31.9433 146.287 33.2933C144.511 34.6433 143.217 36.5364 142.598 38.6893H134.375C133.623 27.9333 128.757 17.8911 120.8 10.6788C112.843 3.46638 102.417 -0.352906 91.7201 0.0256817C81.0227 0.40427 70.889 4.95117 63.4542 12.7083C56.0194 20.4654 51.8643 30.8268 51.8643 41.6094C51.8643 52.3919 56.0194 62.7534 63.4542 70.5105C70.889 78.2676 81.0227 82.8145 91.7201 83.1931C102.417 83.5716 112.843 79.7524 120.8 72.54C128.757 65.3276 133.623 55.2832 134.375 44.5272ZM152.448 37.0405H167.974L165.617 39.6462C165.133 40.1835 164.865 40.8834 164.865 41.6094C164.865 42.3353 165.133 43.0352 165.617 43.5726L167.979 46.185H152.448C151.298 46.1796 150.194 45.7336 149.359 44.9375C148.524 44.1415 148.021 43.0551 147.952 41.8991C147.977 41.8038 147.997 41.707 148.01 41.6094C147.997 41.5117 147.977 41.4149 147.952 41.3196C148.023 40.1648 148.526 39.0801 149.361 38.2855C150.196 37.4908 151.299 37.0458 152.448 37.0405ZM57.7385 41.6094C57.73 32.3778 61.2678 23.501 67.611 16.8382C73.9543 10.1755 82.6107 6.24359 91.7674 5.86616C100.924 5.48873 109.87 8.69502 116.733 14.8135C123.595 20.9319 127.841 29.4879 128.581 38.6893H119.912C119.17 31.8101 115.839 25.4791 110.604 20.9988C105.369 16.5186 98.6286 14.2301 91.7695 14.6042C84.9104 14.9783 78.4545 17.9866 73.7304 23.01C69.0064 28.0334 66.3734 34.6898 66.3734 41.6094C66.3734 48.5289 69.0064 55.1853 73.7304 60.2087C78.4545 65.2321 84.9104 68.2404 91.7695 68.6145C98.6286 68.9887 105.369 66.7001 110.604 62.2199C115.839 57.7397 119.17 51.4086 119.912 44.5295H128.581C127.841 53.7309 123.595 62.2868 116.733 68.4053C109.87 74.5237 100.924 77.73 91.7674 77.3526C82.6107 76.9751 73.9543 73.0433 67.611 66.3805C61.2678 59.7177 57.73 50.8409 57.7385 41.6094ZM105.273 38.6893C104.563 35.72 102.797 33.1161 100.309 31.3709C97.8204 29.6258 94.7831 28.8608 91.7724 29.2207C88.7616 29.5806 85.9866 31.0406 83.973 33.3239C81.9594 35.6072 80.8473 38.5552 80.8473 41.6094C80.8473 44.6635 81.9594 47.6115 83.973 49.8948C85.9866 52.1782 88.7616 53.6381 91.7724 53.998C94.7831 54.358 97.8204 53.5929 100.309 51.8478C102.797 50.1027 104.563 47.4988 105.273 44.5295H114.058C113.324 49.8475 110.614 54.6869 106.476 58.0704C102.337 61.4539 97.0779 63.1295 91.7605 62.7588C86.4431 62.3881 81.4634 59.9988 77.8269 56.0733C74.1903 52.1479 72.1679 46.9786 72.1679 41.6094C72.1679 36.2401 74.1903 31.0709 77.8269 27.1454C81.4634 23.2199 86.4431 20.8306 91.7605 20.4599C97.0779 20.0893 102.337 21.7648 106.476 25.1483C110.614 28.5318 113.324 33.3712 114.058 38.6893H105.273ZM93.2313 44.5295H99.1338C98.4788 45.8764 97.3902 46.9602 96.0454 47.6041C94.7007 48.2481 93.1791 48.4143 91.7286 48.0756C90.2781 47.7369 88.9842 46.9134 88.0578 45.7391C87.1315 44.5649 86.6272 43.1092 86.6272 41.6094C86.6272 40.1095 87.1315 38.6538 88.0578 37.4796C88.9842 36.3054 90.2781 35.4818 91.7286 35.1432C93.1791 34.8045 94.7007 34.9707 96.0454 35.6146C97.3902 36.2586 98.4788 37.3423 99.1338 38.6893H93.2358C92.467 38.6893 91.7296 38.9969 91.186 39.5445C90.6424 40.0922 90.337 40.8349 90.337 41.6094C90.337 42.3838 90.6424 43.1266 91.186 43.6742C91.7296 44.2218 92.467 44.5295 93.2358 44.5295H93.2313Z" fill="#319F5F"/>
<path d="M42.172 117.396C44.9679 115.129 46.9967 112.043 47.9784 108.565C48.9601 105.087 48.8465 101.388 47.6532 97.9783C46.4599 94.5683 44.2457 91.6152 41.3159 89.5262C38.3862 87.4373 34.8852 86.3155 31.2958 86.3155C27.7064 86.3155 24.2054 87.4373 21.2757 89.5262C18.3459 91.6152 16.1317 94.5683 14.9384 97.9783C13.7451 101.388 13.6315 105.087 14.6132 108.565C15.5949 112.043 17.6236 115.129 20.4196 117.396C14.8896 119.426 10.0419 122.989 6.43574 127.675C2.8296 132.361 0.61194 137.978 0.0385699 143.879C-0.054898 144.659 0.0220065 145.45 0.263899 146.197C0.505792 146.944 0.906828 147.629 1.43893 148.203C1.94984 148.771 2.57324 149.224 3.26885 149.533C3.96445 149.843 4.71678 150.002 5.47723 150H57.0988C57.8588 150.001 58.6107 149.842 59.3058 149.532C60.001 149.223 60.6241 148.77 61.1348 148.203C61.6618 147.637 62.0603 146.962 62.3025 146.225C62.5447 145.488 62.6248 144.707 62.5374 143.935C61.9713 138.028 59.7589 132.402 56.1556 127.706C52.5523 123.01 47.7047 119.436 42.172 117.396ZM19.7373 103.82C19.7346 101.518 20.4096 99.2679 21.6769 97.3531C22.9441 95.4383 24.7467 93.9452 26.8565 93.0625C28.9664 92.1799 31.2887 91.9475 33.5297 92.3946C35.7707 92.8418 37.8297 93.9485 39.4463 95.5747C41.0628 97.2008 42.1642 99.2735 42.6111 101.53C43.058 103.787 42.8304 106.127 41.9571 108.253C41.0838 110.38 39.6039 112.198 37.7048 113.477C35.8056 114.756 33.5725 115.439 31.288 115.439C28.2276 115.438 25.2927 114.214 23.1272 112.036C20.9617 109.857 19.7426 106.903 19.7373 103.82ZM5.82509 144.164C6.53581 137.866 9.52327 132.051 14.2177 127.829C18.9121 123.607 24.9849 121.274 31.278 121.274C37.571 121.274 43.6438 123.607 48.3382 127.829C53.0326 132.051 56.0201 137.866 56.7308 144.164H5.82509ZM94.351 103.979C91.5613 103.976 88.8333 104.807 86.5122 106.366C84.1912 107.925 82.3813 110.142 81.3116 112.737C80.2419 115.333 79.9604 118.189 80.5027 120.946C81.0451 123.703 82.3869 126.235 84.3584 128.223C86.33 130.212 88.8426 131.566 91.5785 132.115C94.3144 132.665 97.1506 132.384 99.7283 131.31C102.306 130.235 104.509 128.414 106.059 126.078C107.61 123.742 108.437 120.995 108.437 118.184C108.429 114.424 106.944 110.82 104.307 108.158C101.67 105.497 98.095 103.995 94.3621 103.979H94.351ZM94.351 126.554C92.7072 126.557 91.0995 126.068 89.7314 125.15C88.3633 124.232 87.2963 122.926 86.6654 121.397C86.0345 119.867 85.868 118.184 86.1871 116.56C86.5062 114.935 87.2964 113.443 88.4579 112.271C89.6193 111.099 91.0997 110.301 92.7118 109.977C94.3238 109.653 95.9951 109.818 97.514 110.451C99.033 111.084 100.331 112.156 101.245 113.533C102.158 114.91 102.646 116.528 102.646 118.184C102.64 120.398 101.766 122.519 100.214 124.087C98.6627 125.654 96.5594 126.541 94.3621 126.554H94.351ZM211 53.2141C210.999 49.3667 209.483 45.6769 206.784 42.954C204.086 40.2312 200.426 38.6977 196.606 38.6899H187.065C186.296 38.6899 185.558 38.9976 185.015 39.5452C184.471 40.0929 184.166 40.8356 184.166 41.61C184.166 42.3845 184.471 43.1273 185.015 43.6749C185.558 44.2225 186.296 44.5302 187.065 44.5302H196.606C198.889 44.5361 201.076 45.4536 202.688 47.0814C204.301 48.7093 205.206 50.9147 205.207 53.2141V55.53C205.204 56.4368 205.058 57.3374 204.776 58.1985C203.28 57.2859 201.566 56.7992 199.817 56.7901C197.647 56.798 195.541 57.5322 193.831 58.8773C192.12 60.2224 190.901 62.102 190.367 64.2207H143.685C139.86 64.2231 136.192 65.7535 133.486 68.4763C130.779 71.1991 129.256 74.8919 129.248 78.7449V81.0675C129.26 84.0238 130.172 86.9052 131.862 89.3224C131.524 90.3086 131.344 91.343 131.331 92.3863C131.323 94.7205 132.139 96.9816 133.633 98.7656C135.127 100.55 137.203 101.74 139.488 102.125C141.774 102.51 144.12 102.064 146.109 100.866C148.098 99.6682 149.6 97.7972 150.345 95.5872H168.325C170.614 95.5872 172.81 96.502 174.43 98.1309C176.05 99.7598 176.963 101.97 176.968 104.276V106.594C176.962 108.899 176.049 111.108 174.429 112.736C172.809 114.364 170.613 115.278 168.325 115.278H123.886C123.629 114.417 123.166 113.632 122.538 112.994C121.909 112.355 121.135 111.882 120.282 111.616C119.808 111.477 119.375 111.223 119.021 110.875C118.668 110.528 118.405 110.098 118.255 109.624C117.966 108.809 117.629 108.011 117.245 107.236C117.026 106.797 116.914 106.311 116.918 105.819C116.922 105.328 117.042 104.844 117.267 104.408L117.383 104.184C117.883 103.173 118.057 102.03 117.88 100.914C117.704 99.7992 117.185 98.7675 116.398 97.9637L114.44 96.0095C113.621 95.1758 112.555 94.6338 111.403 94.4655C110.251 94.2973 109.076 94.5121 108.056 95.0773C107.621 95.3134 107.135 95.4391 106.641 95.4434C106.146 95.4477 105.659 95.3305 105.219 95.102C104.441 94.7359 103.658 94.4057 102.84 94.1114C102.375 93.9559 101.955 93.689 101.615 93.3338C101.275 92.9785 101.026 92.5455 100.889 92.0718C100.848 91.9557 100.801 91.8418 100.748 91.7304C100.388 90.687 99.7117 89.7839 98.8148 89.148C97.918 88.5122 96.8458 88.1756 95.7491 88.1858H92.9283C91.7782 88.2011 90.6632 88.5868 89.7464 89.2865C88.8296 89.9861 88.1591 90.963 87.8331 92.0741C87.6876 92.5593 87.4252 93.0008 87.0692 93.359C86.7132 93.7173 86.2746 93.9812 85.7927 94.1271C85.0323 94.4169 84.2318 94.7426 83.4224 95.12C82.955 95.3495 82.4381 95.4578 81.9186 95.4351C81.3992 95.4123 80.8936 95.2592 80.4477 94.9897C79.4393 94.4695 78.2919 94.2885 77.1738 94.4732C76.0558 94.658 75.0259 95.1987 74.2353 96.0162L72.3511 97.9368C71.5346 98.727 70.9913 99.7603 70.801 100.885C70.6108 102.009 70.7836 103.165 71.2941 104.184L71.4056 104.408C71.6369 104.828 71.764 105.298 71.7761 105.778C71.7881 106.258 71.6847 106.733 71.4747 107.164C71.0863 107.971 70.7475 108.8 70.4601 109.649C70.2939 110.142 70.0079 110.585 69.6282 110.938C69.2485 111.291 68.7871 111.543 68.286 111.67C67.2059 112.011 66.2625 112.691 65.594 113.611C64.9255 114.531 64.567 115.643 64.571 116.783V119.591C64.574 120.757 64.9527 121.892 65.6503 122.824C66.3479 123.755 67.3268 124.434 68.4399 124.757C68.9143 124.896 69.3474 125.151 69.7009 125.499C70.0544 125.847 70.3175 126.277 70.4668 126.752C70.7409 127.565 71.0641 128.361 71.4346 129.135C71.6594 129.566 71.7769 130.045 71.7769 130.532C71.7769 131.019 71.6594 131.498 71.4346 131.929C71.4168 131.961 71.312 132.154 71.2963 132.187C70.7902 133.2 70.6175 134.349 70.8031 135.467C70.9887 136.586 71.5231 137.615 72.3288 138.407L74.3 140.429C75.0777 141.219 76.0836 141.742 77.1738 141.921C78.264 142.101 79.3827 141.928 80.3697 141.428L80.635 141.3C81.0648 141.065 81.5453 140.938 82.0346 140.933C82.5239 140.927 83.0072 141.041 83.4425 141.267C84.2118 141.633 85.0279 141.963 85.8574 142.275C86.3002 142.409 86.7052 142.647 87.0396 142.969C87.374 143.29 87.6283 143.687 87.7818 144.126C87.7996 144.198 87.8665 144.45 87.891 144.519C88.2447 145.585 88.9208 146.511 89.8243 147.17C90.7277 147.828 91.8133 148.185 92.9283 148.19H95.7491C96.8396 148.2 97.9063 147.868 98.8005 147.239C99.6946 146.61 100.372 145.716 100.737 144.681C100.797 144.561 100.847 144.436 100.889 144.308C101.025 143.836 101.272 143.404 101.61 143.05C101.948 142.695 102.366 142.429 102.829 142.273C103.645 141.981 104.445 141.645 105.226 141.267C105.695 141.034 106.215 140.923 106.737 140.942C107.26 140.962 107.77 141.112 108.221 141.379C109.219 141.907 110.359 142.098 111.472 141.923C112.586 141.747 113.614 141.216 114.404 140.406L116.433 138.385C117.232 137.559 117.746 136.498 117.902 135.357C118.058 134.215 117.846 133.053 117.299 132.041C117.065 131.613 116.935 131.134 116.919 130.645C116.903 130.156 117.002 129.67 117.207 129.227C117.607 128.425 117.96 127.6 118.262 126.756C118.431 126.256 118.723 125.807 119.11 125.451C119.497 125.094 119.967 124.842 120.476 124.716C121.292 124.442 122.03 123.972 122.624 123.345C123.219 122.719 123.653 121.956 123.888 121.122H168.325C172.149 121.121 175.816 119.592 178.522 116.87C181.228 114.149 182.752 110.457 182.759 106.605V104.264C182.752 100.412 181.229 96.7192 178.523 93.9967C175.817 91.2742 172.149 89.7443 168.325 89.7425H150.521C150.114 88.232 149.355 86.8415 148.305 85.6871C147.256 84.5327 145.948 83.6479 144.49 83.1067C143.032 82.5654 141.467 82.3833 139.925 82.5756C138.383 82.768 136.909 83.3291 135.626 84.2122C135.24 83.2093 135.042 82.1431 135.042 81.0675V78.7404C135.049 76.436 135.962 74.2284 137.583 72.6014C139.203 70.9745 141.397 70.0609 143.685 70.0609H190.652C191.091 71.2952 191.77 72.4288 192.65 73.3951C193.53 74.3614 194.592 75.1409 195.775 75.6879C196.958 76.235 198.237 76.5384 199.538 76.5805C200.839 76.6226 202.135 76.4025 203.35 75.9331C204.565 75.4637 205.675 74.7545 206.615 73.847C207.554 72.9396 208.304 71.8523 208.821 70.6489C209.337 69.4455 209.61 68.1502 209.623 66.8392C209.635 65.5282 209.388 64.2279 208.895 63.0145C210.258 60.7626 210.986 58.1788 211 55.5412V53.2141ZM118.318 119.267C117.041 119.696 115.88 120.416 114.924 121.371C113.968 122.325 113.243 123.488 112.805 124.77C112.575 125.419 112.304 126.052 111.996 126.666C111.421 127.895 111.128 129.24 111.141 130.599C111.153 131.958 111.47 133.296 112.067 134.515L110.553 136.028C109.343 135.419 108.009 135.098 106.656 135.091C105.303 135.083 103.966 135.39 102.749 135.986C102.142 136.279 101.52 136.54 100.887 136.768C99.6194 137.206 98.4693 137.932 97.5257 138.89C96.5821 139.849 95.8704 141.013 95.4459 142.293L95.4191 142.345H93.2918C92.8696 141.055 92.1569 139.881 91.2096 138.915C90.2622 137.948 89.1059 137.216 87.8308 136.774C87.2109 136.538 86.5509 136.276 85.9466 135.988C84.7332 135.38 83.3957 135.067 82.0406 135.072C80.6856 135.078 79.3506 135.402 78.142 136.02L76.6391 134.488C77.2454 133.259 77.562 131.906 77.5643 130.535C77.5667 129.163 77.2546 127.809 76.6525 126.579C76.3754 125.995 76.1334 125.395 75.9278 124.782C75.4824 123.492 74.7489 122.323 73.7839 121.365C72.8189 120.406 71.6481 119.684 70.362 119.254V117.113C71.6474 116.687 72.8175 115.967 73.7807 115.009C74.7439 114.052 75.4742 112.883 75.9144 111.594C76.1325 110.946 76.3902 110.312 76.6859 109.696C77.2689 108.474 77.5667 107.134 77.5567 105.778C77.5466 104.423 77.229 103.087 76.628 101.874L78.1331 100.34C79.3384 100.954 80.6689 101.277 82.0195 101.284C83.3701 101.291 84.7039 100.982 85.9154 100.381C86.542 100.084 87.2065 99.8191 87.7729 99.6057C89.0562 99.163 90.2208 98.4281 91.1761 97.458C92.1314 96.4879 92.8516 95.3088 93.2806 94.0126H95.4236L95.4392 94.0463C95.8678 95.3282 96.5814 96.4945 97.5254 97.4564C98.4695 98.4183 99.6192 99.1504 100.887 99.5967H100.902C101.549 99.8214 102.153 100.086 102.753 100.367C103.971 100.959 105.308 101.264 106.66 101.257C108.013 101.25 109.346 100.932 110.558 100.327L112.067 101.836C111.464 103.069 111.149 104.424 111.144 105.798C111.139 107.172 111.446 108.529 112.041 109.765C112.331 110.348 112.587 110.948 112.805 111.562C113.248 112.845 113.975 114.008 114.931 114.964C115.888 115.92 117.048 116.644 118.324 117.079L118.318 119.267ZM141.125 88.3318C141.919 88.3292 142.697 88.564 143.358 89.0067C144.02 89.4493 144.537 90.0799 144.843 90.8184C145.148 91.557 145.23 92.3704 145.076 93.1556C144.923 93.9408 144.542 94.6625 143.981 95.2293C143.42 95.7961 142.705 96.1825 141.926 96.3396C141.147 96.4967 140.339 96.4174 139.605 96.1118C138.871 95.8062 138.243 95.288 137.802 94.6228C137.36 93.9576 137.124 93.1753 137.124 92.3751C137.124 91.3051 137.545 90.2787 138.295 89.5208C139.045 88.763 140.063 88.3354 141.125 88.3318ZM199.824 70.7191C199.03 70.7191 198.254 70.4819 197.594 70.0377C196.934 69.5934 196.419 68.9619 196.116 68.2231C195.812 67.4843 195.732 66.6714 195.887 65.887C196.042 65.1027 196.424 64.3823 196.986 63.8168C197.547 63.2514 198.262 62.8663 199.041 62.7103C199.819 62.5543 200.626 62.6344 201.36 62.9404C202.093 63.2464 202.72 63.7646 203.161 64.4295C203.602 65.0944 203.838 65.8762 203.838 66.6758C203.838 67.7482 203.415 68.7766 202.662 69.5348C201.909 70.2931 200.888 70.7191 199.824 70.7191Z" fill="#147952"/>
</svg>
