<svg width="169" height="150" viewBox="0 0 169 150" fill="none" xmlns="http://www.w3.org/2000/svg">
<path d="M107.209 50.558C107.592 50.0135 107.592 49.2906 107.209 48.7461C102.147 41.5904 93.8686 37.3178 85.0595 37.3178C76.2519 37.3178 67.973 41.5904 62.9116 48.7461C62.5252 49.2906 62.5252 50.0135 62.9116 50.558C73.3222 65.6917 96.8009 65.6893 107.209 50.558ZM95.4807 42.8703C98.7408 44.4437 101.639 46.7463 103.909 49.652C101.639 52.5578 98.7408 54.8604 95.4807 56.4337C98.2061 52.6037 98.206 46.7003 95.4807 42.8703ZM74.6378 56.4331C71.3783 54.8597 68.4806 52.5573 66.2103 49.652C68.4806 46.7468 71.3783 44.4444 74.6378 42.871C71.913 46.7007 71.9131 52.6033 74.6378 56.4331ZM75.7733 49.6518C76.1679 37.5357 93.9528 37.5385 94.3456 49.652C93.951 61.7683 76.1661 61.7655 75.7733 49.6518ZM80.5595 49.652C80.7157 55.5128 89.4041 55.5117 89.5594 49.6518C89.4035 43.7921 80.7145 43.7933 80.5595 49.652ZM83.7628 49.6519C83.7718 47.9779 86.3473 47.978 86.3561 49.652C86.3472 51.3272 83.7715 51.327 83.7628 49.6519Z" fill="#319F5F"/>
<path fill-rule="evenodd" clip-rule="evenodd" d="M107.209 48.7461C107.592 49.2906 107.592 50.0135 107.209 50.558C96.8009 65.6893 73.3222 65.6917 62.9116 50.558C62.5252 50.0135 62.5252 49.2906 62.9116 48.7461C67.973 41.5904 76.2519 37.3178 85.0595 37.3178C93.8686 37.3178 102.147 41.5904 107.209 48.7461ZM62.662 48.5705C62.2016 49.2198 62.2012 50.0824 62.6609 50.732C73.1932 66.04 96.9306 66.0375 107.46 50.7317C107.916 50.0823 107.916 49.2202 107.459 48.5711C102.34 41.3342 93.9676 37.0132 85.0596 37.0132C76.1531 37.0132 67.7809 41.3337 62.662 48.5705ZM80.2542 49.644C80.4197 43.3899 89.6984 43.3885 89.8649 49.6438L89.8653 49.6599C89.6995 55.9151 80.421 55.9164 80.2542 49.6601L80.2542 49.644ZM96.0333 43.1458C95.8504 43.0516 95.6661 42.9598 95.4807 42.8703C95.5986 43.0359 95.7114 43.2054 95.819 43.3785C98.0933 47.0339 98.0934 52.2701 95.819 55.9256C95.7114 56.0986 95.5986 56.2681 95.4807 56.4337C95.6661 56.3443 95.8504 56.2524 96.0333 56.1583C99.0684 54.5966 101.768 52.3925 103.909 49.652C101.768 46.9115 99.0684 44.7075 96.0333 43.1458ZM96.3323 43.6482C98.3295 47.2272 98.3296 52.0767 96.3323 55.6558C99.0816 54.1678 101.536 52.1387 103.52 49.652C101.536 47.1654 99.0816 45.1362 96.3323 43.6482ZM74.6378 56.4331C74.52 56.2674 74.4074 56.0979 74.2997 55.9249C72.0259 52.2697 72.0258 47.0344 74.2997 43.3792C74.4073 43.2061 74.52 43.0366 74.6378 42.871C74.4525 42.9605 74.2683 43.0523 74.0854 43.1465C71.0508 44.7082 68.3515 46.912 66.2103 49.652C68.3515 52.3921 71.0508 54.5959 74.0854 56.1576C74.2684 56.2517 74.4525 56.3436 74.6378 56.4331ZM73.7865 55.6551C71.0377 54.1672 68.5835 52.1382 66.5992 49.652C68.5834 47.1659 71.0377 45.1369 73.7864 43.649C71.7896 47.2277 71.7897 52.0764 73.7865 55.6551ZM94.0401 49.652C93.649 61.362 76.4683 61.3595 76.079 49.6519C76.47 37.9421 93.6507 37.9445 94.0401 49.652ZM75.7733 49.6518C76.1679 37.5357 93.9528 37.5385 94.3456 49.652C93.951 61.7683 76.1661 61.7655 75.7733 49.6518ZM89.5594 49.6518C89.4035 43.7921 80.7145 43.7933 80.5595 49.652C80.7157 55.5128 89.4041 55.5117 89.5594 49.6518ZM84.3704 48.9408C84.1967 49.0905 84.0706 49.3194 84.0684 49.652C84.0705 49.9849 84.1966 50.214 84.3703 50.3638C84.5504 50.519 84.7995 50.6037 85.0595 50.6037C85.3195 50.6037 85.5686 50.5191 85.7487 50.3638C85.9224 50.2141 86.0486 49.9849 86.0507 49.652C86.0486 49.3195 85.9225 49.0905 85.7488 48.9409C85.5688 48.7857 85.3196 48.7011 85.0596 48.7011C84.7996 48.7011 84.5504 48.7857 84.3704 48.9408ZM83.7628 49.6519C83.7718 47.9779 86.3473 47.978 86.3561 49.652C86.3472 51.3272 83.7715 51.327 83.7628 49.6519Z" fill="#319F5F"/>
<path d="M113.088 21.9333C112.463 21.3154 112.463 20.3137 113.088 19.6966L117.617 15.2255C118.242 14.6076 119.256 14.6076 119.881 15.2255C120.507 15.8434 120.507 16.8451 119.881 17.4622L115.353 21.9333C114.728 22.5511 113.714 22.5511 113.088 21.9333ZM35.9367 48.6376H42.3385C44.4347 48.6462 44.4314 51.7926 42.3386 51.8011H35.9368C33.8406 51.7924 33.8439 48.6461 35.9367 48.6376ZM126.554 48.6376H132.957C135.054 48.6462 135.05 51.7926 132.957 51.8011H126.554C124.458 51.7924 124.461 48.6461 126.554 48.6376ZM49.0128 17.4622C47.5366 15.992 49.7923 13.7706 51.2776 15.2255L55.804 19.6965C57.2799 21.1662 55.025 23.3886 53.5393 21.9333L49.0128 17.4622ZM119.881 82.9763C121.357 84.4449 119.102 86.669 117.617 85.2131L113.088 80.7428C111.612 79.2738 113.868 77.0508 115.353 78.5061L119.881 82.9763ZM82.8446 8.63517V2.31292C82.8531 0.242861 86.0396 0.246144 86.0479 2.31282V8.63517C86.0394 10.705 82.8529 10.7017 82.8446 8.63517Z" fill="#319F5F"/>
<path fill-rule="evenodd" clip-rule="evenodd" d="M70.2785 87.2092C65.1316 87.6255 62.5079 94.0581 65.8559 97.8826C62.7358 101.448 64.7911 107.46 69.4881 108.404C70.1693 115.047 75.8464 120.243 82.7365 120.243H86.1557C93.0474 120.243 98.7246 115.047 99.4058 108.404C104.104 107.458 106.157 101.448 103.038 97.8825C106.384 94.0596 103.766 87.6364 98.6263 87.2105C98.4111 81.3583 100.559 75.6393 105.228 71.801C119.52 60.1779 120.343 37.3644 106.799 24.8711C86.4426 5.09401 51.8537 20.4939 52.3612 48.3938L52.3613 48.3983C52.5776 57.3717 56.6589 65.8609 63.5563 71.689L63.5616 71.6934C68.4337 75.7356 70.521 81.367 70.2785 87.2092ZM102.174 68.2219C108.299 63.0489 111.81 55.5421 111.81 47.6276V47.6112C112.128 32.829 98.6646 19.865 83.6726 20.614L83.6571 20.6148C68.9119 21.052 56.7434 33.739 57.0914 48.2866C57.2739 55.9255 60.7496 63.1565 66.6267 68.1234C72.5712 73.079 75.2762 80.0412 75.0093 87.191H93.8962C93.6632 80.0308 96.4116 72.9814 102.174 68.2219ZM79.1535 100.227L79.15 100.227L70.9384 100.227C69.9066 100.227 69.0775 101.056 69.0775 102.059C69.0775 103.061 69.9065 103.89 70.9384 103.89H97.9539C98.9877 103.89 99.8163 103.06 99.8163 102.059C99.8163 101.056 98.9875 100.227 97.9539 100.227H92.9973C92.2659 100.224 91.6628 99.9386 91.2503 99.4724C90.8504 99.0202 90.666 98.4402 90.6653 97.8848C90.6646 97.3294 90.8474 96.7485 91.2476 96.2954C91.6602 95.8282 92.2642 95.5434 92.9967 95.54L93.0003 95.54H97.9539C98.9877 95.54 99.8163 94.7107 99.8163 93.7088C99.8163 92.707 98.9877 91.8777 97.9539 91.8777H70.9456C70.2871 91.8907 69.8486 92.1337 69.5683 92.449C69.2759 92.778 69.1156 93.2323 69.1164 93.7091C69.1171 94.1859 69.2789 94.6408 69.5723 94.9702C69.8536 95.286 70.2914 95.5278 70.945 95.54H79.153C79.8845 95.5429 80.4878 95.8279 80.9003 96.2943C81.3003 96.7466 81.4844 97.3267 81.4849 97.8821C81.4855 98.4375 81.3025 99.0183 80.9024 99.4713C80.4898 99.9384 79.8859 100.223 79.1535 100.227ZM115.353 21.9333C114.728 22.5511 113.714 22.5511 113.088 21.9333C112.463 21.3154 112.463 20.3137 113.088 19.6966L117.617 15.2255C118.242 14.6076 119.256 14.6076 119.881 15.2255C120.507 15.8434 120.507 16.8451 119.881 17.4622L115.353 21.9333ZM120.418 18.0037L115.89 22.4745C114.967 23.3862 113.474 23.3862 112.551 22.4744C111.624 21.5588 111.623 20.0708 112.551 19.1554L117.079 14.6843C118.002 13.7726 119.495 13.7726 120.419 14.6844C121.346 15.6 121.346 17.0883 120.418 18.0037ZM35.9335 47.876L35.9366 47.876L42.3415 47.876C43.0737 47.879 43.6775 48.1638 44.0901 48.6309C44.4901 49.0837 44.6733 49.6644 44.673 50.2197C44.6727 50.7751 44.489 51.3555 44.0891 51.808C43.6767 52.2746 43.0733 52.5597 42.3416 52.5627L42.3385 52.5627L35.9335 52.5627C35.2013 52.5596 34.5975 52.2747 34.185 51.8077C33.7849 51.3549 33.6018 50.7742 33.6021 50.2189C33.6023 49.6635 33.7861 49.0832 34.186 48.6307C34.5984 48.164 35.2018 47.879 35.9335 47.876ZM126.551 47.876L126.554 47.876L132.96 47.876C133.693 47.879 134.296 48.1638 134.709 48.6309C135.109 49.0837 135.292 49.6644 135.292 50.2197C135.292 50.7751 135.108 51.3555 134.708 51.808C134.295 52.2746 133.692 52.5597 132.96 52.5627L132.957 52.5627L126.551 52.5627C125.819 52.5596 125.215 52.2747 124.802 51.8077C124.402 51.3549 124.219 50.7742 124.219 50.2189C124.22 49.6635 124.403 49.0832 124.803 48.6307C125.216 48.164 125.819 47.879 126.551 47.876ZM48.473 18.0011C47.9548 17.4849 47.7301 16.8576 47.773 16.2355C47.8146 15.6335 48.1017 15.0958 48.4975 14.7054C48.8935 14.3149 49.4355 14.035 50.0382 13.9946C50.6598 13.9529 51.2907 14.171 51.8126 14.6822L51.8149 14.6844L56.3435 19.1576C56.8617 19.6736 57.0864 20.301 57.0435 20.923C57.0019 21.5249 56.715 22.0627 56.3192 22.4532C55.9233 22.8438 55.3814 23.1239 54.7786 23.1643C54.1569 23.206 53.5259 22.9878 53.004 22.4766L53.0017 22.4744L48.473 18.0011ZM120.421 82.4372C120.939 82.9531 121.164 83.5805 121.121 84.2024C121.079 84.8043 120.792 85.3422 120.397 85.7327C120.001 86.1234 119.459 86.4036 118.856 86.4442C118.234 86.486 117.603 86.2678 117.081 85.7564L117.079 85.7544L112.551 81.2841L112.549 81.2819C112.03 80.766 111.806 80.1386 111.849 79.5166C111.89 78.9147 112.177 78.3768 112.573 77.9864C112.969 77.5958 113.511 77.3157 114.114 77.2752C114.735 77.2334 115.366 77.4515 115.888 77.9629L115.89 77.9649L120.421 82.4372ZM82.0808 8.63822L82.0808 8.63517V2.3098C82.0838 1.5794 82.3755 0.979823 82.8482 0.572644C83.3055 0.178639 83.8897 -0.000277401 84.4466 3.22806e-07C85.0034 0.000278001 85.5873 0.17976 86.0443 0.573632C86.5166 0.980653 86.8085 1.57984 86.8115 2.30977L86.8115 2.31282V8.63829C86.8085 9.36866 86.5167 9.96821 86.0441 10.3754C85.5867 10.7693 85.0025 10.9482 84.4457 10.9479C83.8889 10.9476 83.305 10.7682 82.848 10.3743C82.3757 9.96731 82.0837 9.36814 82.0808 8.63822ZM74.2698 108.576C74.9925 112.535 78.5104 115.557 82.7365 115.557H86.1557C90.3834 115.557 93.9013 112.535 94.624 108.576H74.2698ZM48.4752 82.4353L53.0018 77.965C53.9251 77.0532 55.4181 77.0532 56.3414 77.965C57.2688 78.8809 57.2688 80.3681 56.3414 81.284L51.8148 85.7543C50.8915 86.6661 49.3985 86.6661 48.4752 85.7543C47.5478 84.8384 47.5478 83.3512 48.4752 82.4353ZM35.9367 48.6376H42.3385C44.4347 48.6462 44.4314 51.7926 42.3386 51.8011H35.9368C33.8406 51.7924 33.8439 48.6461 35.9367 48.6376ZM126.554 48.6376H132.957C135.054 48.6462 135.05 51.7926 132.957 51.8011H126.554C124.458 51.7924 124.461 48.6461 126.554 48.6376ZM49.0128 17.4622L53.5393 21.9333C55.025 23.3886 57.2799 21.1662 55.804 19.6965L51.2776 15.2255C49.7923 13.7706 47.5366 15.992 49.0128 17.4622ZM119.881 82.9763C121.357 84.4449 119.102 86.669 117.617 85.2131L113.088 80.7428C111.612 79.2738 113.868 77.0508 115.353 78.5061L119.881 82.9763ZM82.8446 8.63517V2.31292C82.8531 0.242861 86.0396 0.246144 86.0479 2.31282V8.63517C86.0394 10.705 82.8529 10.7017 82.8446 8.63517Z" fill="#319F5F"/>
<path fill-rule="evenodd" clip-rule="evenodd" d="M126.601 102.786L126.605 102.784L139.398 97.2703C141.784 96.244 144.508 96.4082 146.528 97.887L155.34 71.7894C155.966 69.7457 157.549 68.0735 159.403 67.1257C161.256 66.1783 163.49 65.9021 165.419 66.8302C168.001 67.9983 169.348 70.6789 168.922 73.5804L163.867 107.695C163.396 110.836 161.692 113.865 159.201 116.022L148.68 125.184L135.539 135.907C136.37 137.657 136.089 139.845 134.788 141.317L134.784 141.322L128.868 148.21C127.027 150.351 123.778 150.601 121.628 148.798L101.104 131.604L101.097 131.599C98.9365 129.86 98.6576 126.483 100.499 124.417L100.504 124.412L106.417 117.526C107.795 115.922 109.959 115.392 111.862 115.979L113.803 111.878C115.209 108.916 117.713 106.52 120.693 105.288L120.696 105.287L126.601 102.786ZM131.2 138.263C131.292 138.16 131.305 137.986 131.24 137.857C131.014 137.776 130.777 137.655 130.556 137.469L111.242 121.155L111.19 121.087C110.958 120.779 110.673 120.542 110.439 120.455C110.334 120.416 110.267 120.417 110.225 120.426C110.19 120.434 110.117 120.459 110.014 120.571L104.096 127.462C104.027 127.542 103.995 127.64 104.003 127.745C104.012 127.851 104.06 127.944 104.145 128.015L124.68 145.219C124.857 145.366 125.12 145.341 125.264 145.173L131.2 138.263ZM132.891 115.893C132.219 116.186 131.551 116.166 130.985 115.904C130.437 115.65 130.033 115.192 129.806 114.685C129.58 114.178 129.509 113.572 129.69 112.996C129.877 112.401 130.314 111.897 130.986 111.604L142.115 106.753L142.132 106.747C143.769 106.124 144.569 104.369 144.399 102.973C144.317 102.296 144.018 101.8 143.581 101.541C143.15 101.286 142.418 101.164 141.261 101.578L122.495 109.623L122.467 109.632C120.71 110.228 119.41 111.682 118.316 113.529C117.593 114.751 117.012 116.041 116.447 117.294C116.229 117.779 116.013 118.259 115.792 118.726L132.259 132.52C138.515 127.503 150.505 117.542 156.073 112.508L156.085 112.497C157.758 111.048 158.882 109.042 159.187 107.011M159.187 107.011L164.239 72.9199C164.321 72.0307 164.09 71.5675 163.843 71.3312C163.584 71.0825 163.163 70.9445 162.607 70.9971C161.457 71.106 160.185 71.9879 159.84 73.2286L159.835 73.2486L149.182 104.796C148.486 107.377 146.676 109.957 143.991 111.056L132.891 115.893" fill="#147952"/>
<path fill-rule="evenodd" clip-rule="evenodd" d="M42.3992 102.786L42.3948 102.784L29.6016 97.2703C27.2161 96.244 24.4921 96.4082 22.4718 97.8871L13.6604 71.7894C13.0345 69.7457 11.451 68.0735 9.59723 67.1257C7.74435 66.1783 5.51028 65.9021 3.58133 66.8302C0.998787 67.9983 -0.348198 70.6789 0.0776291 73.5804L5.133 107.695C5.60381 110.836 7.30755 113.865 9.79853 116.022L20.3202 125.184L33.4612 135.907C32.6302 137.657 32.9113 139.845 34.2122 141.317L34.2164 141.322L40.132 148.21C41.9734 150.351 45.222 150.601 47.3724 148.798L67.8962 131.604L67.9026 131.599C70.0635 129.86 70.3424 126.483 68.5012 124.417L68.496 124.412L62.5828 117.526C61.2047 115.922 59.0411 115.392 57.1376 115.979L55.1966 111.878C53.7913 108.916 51.2873 106.52 48.3068 105.288L48.3038 105.287L42.3992 102.786ZM37.8005 138.263C37.7076 138.16 37.6947 137.986 37.7597 137.857C37.9857 137.776 38.2235 137.655 38.4445 137.469L57.7582 121.155L57.8096 121.087C58.0423 120.779 58.3274 120.542 58.561 120.455C58.6662 120.416 58.7331 120.417 58.7746 120.426C58.8102 120.434 58.8832 120.459 58.9862 120.571L64.9042 127.462C64.9732 127.542 65.0053 127.64 64.9972 127.745C64.9877 127.851 64.9396 127.944 64.8552 128.015L44.3198 145.219C44.1431 145.366 43.8797 145.341 43.7357 145.173L37.8005 138.263ZM36.1095 115.893C36.7807 116.186 37.4488 116.166 38.0149 115.904C38.5635 115.65 38.9671 115.192 39.1937 114.685C39.4202 114.178 39.4911 113.572 39.3103 112.996C39.1234 112.401 38.6856 111.897 38.0143 111.604L26.8852 106.753L26.8681 106.747C25.2309 106.124 24.4305 104.369 24.6006 102.973C24.6831 102.296 24.982 101.8 25.4193 101.541C25.8503 101.286 26.5819 101.164 27.7385 101.578L46.5051 109.623L46.5334 109.632C48.2903 110.228 49.5895 111.682 50.6836 113.529C51.4073 114.751 51.9885 116.041 52.5525 117.294C52.7711 117.779 52.9871 118.259 53.2079 118.726L36.7412 132.52C30.4855 127.503 18.4947 117.542 12.9269 112.508L12.9149 112.497C11.2422 111.048 10.1178 109.042 9.81287 107.011M9.81287 107.011L4.76058 72.9199C4.67883 72.0307 4.91032 71.5675 5.15657 71.3312C5.41568 71.0825 5.83672 70.9445 6.39256 70.9971C7.54308 71.106 8.81518 71.9879 9.15979 73.2286L9.16536 73.2486L19.8176 104.796C20.514 107.377 22.324 109.957 25.0091 111.056L36.1095 115.893" fill="#147952"/>
</svg>
