<svg width="352" height="145" viewBox="0 0 352 145" fill="none" xmlns="http://www.w3.org/2000/svg">
<path d="M163.009 42.6045V0.760014C163.009 0.531612 163.199 0.34602 163.427 0.350798C172.186 0.53407 174.797 6.47148 175.002 9.46336V50.2245C175.002 50.5569 174.63 50.7535 174.356 50.5661L163.189 42.9461C163.077 42.869 163.009 42.7412 163.009 42.6045Z" fill="url(#paint0_linear_2390_438)"/>
<path d="M177.897 9.85822V15.7537C177.897 15.9821 178.083 16.165 178.311 16.165H189.684C189.912 16.165 190.097 15.9798 190.097 15.7514V0.691508C190.097 0.491642 189.954 0.322453 189.755 0.304754C188.792 0.219127 185.91 0.17214 182.55 2.10399C178.414 4.48197 177.897 8.41076 177.897 9.85822Z" fill="url(#paint1_linear_2390_438)"/>
<path d="M149.736 7.87531C153.268 1.68147 158.251 0.727324 159.703 0.580341C159.93 0.557332 160.114 0.738728 160.114 0.967128V39.2135C160.114 39.5879 159.664 39.7693 159.412 39.4922C157.709 37.6164 153.307 32.611 150.67 28.1903C147.349 22.6217 145.729 14.9049 149.736 7.87531Z" fill="url(#paint2_linear_2390_438)"/>
<path fill-rule="evenodd" clip-rule="evenodd" d="M204.779 16.165C205.007 16.165 205.192 15.9798 205.192 15.7514V9.85822C205.192 8.41076 204.649 4.48197 200.303 2.10399C196.755 0.162364 193.713 0.219653 192.717 0.306057C192.516 0.323433 192.372 0.493314 192.372 0.694511V15.7514C192.372 15.9798 192.557 16.165 192.785 16.165H204.779ZM198.891 6.7565C198.051 6.7565 197.37 7.4375 197.37 8.27756V10.3015C197.37 11.1416 198.051 11.8226 198.891 11.8226C199.731 11.8226 200.412 11.1416 200.412 10.3015V8.27756C200.412 7.4375 199.731 6.7565 198.891 6.7565Z" fill="url(#paint3_linear_2390_438)"/>
<path fill-rule="evenodd" clip-rule="evenodd" d="M177.897 19.3703C177.897 19.1419 178.083 18.9568 178.311 18.9568H204.541C204.781 18.9568 204.972 19.1574 204.946 19.396C204.554 23.059 202.222 31.226 195.505 37.9576C188.929 44.5472 181.777 49.0123 178.486 50.7127C178.215 50.8527 177.897 50.6534 177.897 50.3484V37.2691C177.897 37.2397 177.9 37.2113 177.907 37.1825C178.273 35.5684 179.888 32.4224 183.523 32.4224H186.996C187.224 32.4224 187.409 32.2372 187.409 32.0088V29.9148C187.409 29.6864 187.224 29.5012 186.996 29.5012H183.523C181.648 29.536 177.897 29.0001 177.897 26.578V19.3703ZM189.477 29.5012C189.249 29.5012 189.064 29.6864 189.064 29.9148V32.0088C189.064 32.2372 189.249 32.4224 189.477 32.4224H191.337C192.536 32.5559 193.065 31.8805 193.065 31.0534C193.065 30.2263 192.446 29.6246 191.337 29.5012H189.477Z" fill="url(#paint4_linear_2390_438)"/>
<path d="M106.722 60.2646C106.952 60.2646 107.139 60.4513 107.139 60.6816V71.1669C107.139 71.3973 106.952 71.584 106.722 71.584H104.699C104.575 71.584 104.457 71.5286 104.378 71.433L100.245 66.4434C99.9954 66.1426 99.5065 66.3188 99.5065 66.7095V71.1669C99.5065 71.3973 99.3198 71.584 99.0894 71.584H96.7864C96.5561 71.584 96.3694 71.3973 96.3694 71.1669V60.6816C96.3694 60.4513 96.5561 60.2646 96.7864 60.2646H98.8091C98.9333 60.2646 99.051 60.3199 99.1303 60.4156L103.264 65.4051C103.513 65.706 104.002 65.5297 104.002 65.1391V60.6816C104.002 60.4513 104.189 60.2646 104.419 60.2646H106.722Z" fill="#252642"/>
<path d="M118.068 69.1099C118.299 69.1099 118.485 69.2966 118.485 69.5269V71.1669C118.485 71.3973 118.299 71.584 118.068 71.584H109.814C109.584 71.584 109.397 71.3973 109.397 71.1669V60.6816C109.397 60.4513 109.584 60.2646 109.814 60.2646H117.858C118.088 60.2646 118.275 60.4513 118.275 60.6816V62.3217C118.275 62.552 118.088 62.7387 117.858 62.7387H112.984C112.754 62.7387 112.567 62.9254 112.567 63.1557V64.2298C112.567 64.4601 112.754 64.6468 112.984 64.6468H117.179C117.409 64.6468 117.596 64.8335 117.596 65.0638V66.623C117.596 66.8533 117.409 67.0401 117.179 67.0401H112.984C112.754 67.0401 112.567 67.2268 112.567 67.4571V68.6929C112.567 68.9232 112.754 69.1099 112.984 69.1099H118.068Z" fill="#252642"/>
<path d="M130.953 60.2646C131.252 60.2646 131.454 60.5707 131.336 60.8459L126.842 71.3312C126.777 71.4846 126.626 71.584 126.459 71.584H123.856C123.689 71.584 123.538 71.4843 123.473 71.3308L118.994 60.8454C118.876 60.5703 119.078 60.2646 119.377 60.2646H121.928C122.097 60.2646 122.248 60.3658 122.313 60.5212L124.898 66.7241C125.04 67.0649 125.522 67.0667 125.666 66.727L128.308 60.5184C128.373 60.3645 128.524 60.2646 128.692 60.2646H130.953Z" fill="#252642"/>
<path d="M140.919 69.1099C141.149 69.1099 141.336 69.2966 141.336 69.5269V71.1669C141.336 71.3973 141.149 71.584 140.919 71.584H132.665C132.434 71.584 132.248 71.3973 132.248 71.1669V60.6816C132.248 60.4513 132.434 60.2646 132.665 60.2646H140.708C140.939 60.2646 141.125 60.4513 141.125 60.6816V62.3217C141.125 62.552 140.939 62.7387 140.708 62.7387H135.834C135.604 62.7387 135.417 62.9254 135.417 63.1557V64.2298C135.417 64.4601 135.604 64.6468 135.834 64.6468H140.029C140.26 64.6468 140.446 64.8335 140.446 65.0638V66.623C140.446 66.8533 140.26 67.0401 140.029 67.0401H135.834C135.604 67.0401 135.417 67.2268 135.417 67.4571V68.6929C135.417 68.9232 135.604 69.1099 135.834 69.1099H140.919Z" fill="#252642"/>
<path d="M148.185 68.7581C148.107 68.6443 147.978 68.5763 147.84 68.5763H146.731C146.501 68.5763 146.314 68.763 146.314 68.9933V71.1669C146.314 71.3973 146.127 71.584 145.897 71.584H143.529C143.299 71.584 143.112 71.3973 143.112 71.1669V60.6816C143.112 60.4513 143.299 60.2646 143.529 60.2646H148.287C148.341 60.2646 148.414 60.266 148.485 60.2679C148.631 60.2717 148.765 60.3544 148.835 60.4835L152.258 66.756C152.349 66.9232 152.315 67.1307 152.171 67.2552C151.999 67.4037 151.757 67.6044 151.514 67.7745C151.305 67.9211 151.231 68.2158 151.375 68.4262L153.094 70.9309C153.284 71.2077 153.086 71.584 152.75 71.584H150.334C150.197 71.584 150.068 71.5159 149.99 71.4021L148.185 68.7581ZM150.082 64.4528C150.082 63.9245 149.915 63.5149 149.581 63.2238C149.246 62.9327 148.75 62.7872 148.093 62.7872H146.731C146.501 62.7872 146.314 62.9739 146.314 63.2042V65.6851C146.314 65.9154 146.501 66.1022 146.731 66.1022H148.093C148.75 66.1022 149.246 65.962 149.581 65.6817C149.915 65.3907 150.082 64.981 150.082 64.4528Z" fill="#252642"/>
<path d="M162.085 69.1099C162.315 69.1099 162.502 69.2966 162.502 69.5269V71.1669C162.502 71.3973 162.315 71.584 162.085 71.584H157.623C157.47 71.584 157.329 71.5003 157.256 71.3659L153.465 64.379C153.432 64.318 153.414 64.2496 153.414 64.1801V60.6816C153.414 60.4513 153.601 60.2646 153.831 60.2646H161.875C162.105 60.2646 162.292 60.4513 162.292 60.6816V62.3217C162.292 62.552 162.105 62.7387 161.875 62.7387H157.001C156.77 62.7387 156.584 62.9254 156.584 63.1557V64.2298C156.584 64.4601 156.77 64.6468 157.001 64.6468H161.196C161.426 64.6468 161.613 64.8335 161.613 65.0638V66.623C161.613 66.8533 161.426 67.0401 161.196 67.0401H157.001C156.77 67.0401 156.584 67.2268 156.584 67.4571V68.6929C156.584 68.9232 156.77 69.1099 157.001 69.1099H162.085Z" fill="#252642"/>
<path d="M174.97 60.2646C175.269 60.2646 175.471 60.5707 175.353 60.8459L170.859 71.3312C170.793 71.4846 170.643 71.584 170.476 71.584H167.873C167.706 71.584 167.555 71.4843 167.489 71.3308L163.011 60.8454C162.893 60.5703 163.095 60.2646 163.394 60.2646H165.945C166.113 60.2646 166.265 60.3658 166.33 60.5212L168.915 66.7241C169.057 67.0649 169.539 67.0667 169.683 66.727L172.325 60.5184C172.39 60.3645 172.541 60.2646 172.708 60.2646H174.97Z" fill="#252642"/>
<path d="M184.935 69.1099C185.166 69.1099 185.352 69.2966 185.352 69.5269V71.1669C185.352 71.3973 185.166 71.584 184.935 71.584H176.682C176.451 71.584 176.265 71.3973 176.265 71.1669V60.6816C176.265 60.4513 176.451 60.2646 176.682 60.2646H184.725C184.955 60.2646 185.142 60.4513 185.142 60.6816V62.3217C185.142 62.552 184.955 62.7387 184.725 62.7387H179.851C179.621 62.7387 179.434 62.9254 179.434 63.1557V64.2298C179.434 64.4601 179.621 64.6468 179.851 64.6468H184.046C184.276 64.6468 184.463 64.8335 184.463 65.0638V66.623C184.463 66.8533 184.276 67.0401 184.046 67.0401H179.851C179.621 67.0401 179.434 67.2268 179.434 67.4571V68.6929C179.434 68.9232 179.621 69.1099 179.851 69.1099H184.935Z" fill="#252642"/>
<path d="M192.202 68.7581C192.124 68.6443 191.995 68.5763 191.857 68.5763H190.748C190.518 68.5763 190.331 68.763 190.331 68.9933V71.1669C190.331 71.3973 190.144 71.584 189.914 71.584H187.546C187.316 71.584 187.129 71.3973 187.129 71.1669V60.6816C187.129 60.4513 187.316 60.2646 187.546 60.2646H192.304C192.41 60.2646 192.566 60.2702 192.695 60.2758C192.839 60.2821 192.969 60.3639 193.038 60.4902L196.4 66.6195C196.489 66.7814 196.461 66.9821 196.326 67.1081C196.129 67.2917 195.829 67.5589 195.53 67.7728C195.322 67.9213 195.247 68.2158 195.392 68.4262L197.111 70.9309C197.301 71.2077 197.103 71.584 196.767 71.584H194.351C194.213 71.584 194.085 71.5159 194.007 71.4021L192.202 68.7581ZM194.099 64.4528C194.099 63.9245 193.932 63.5149 193.597 63.2238C193.263 62.9327 192.767 62.7872 192.11 62.7872H190.748C190.518 62.7872 190.331 62.9739 190.331 63.2042V65.6851C190.331 65.9154 190.518 66.1022 190.748 66.1022H192.11C192.767 66.1022 193.263 65.962 193.597 65.6817C193.932 65.3907 194.099 64.981 194.099 64.4528Z" fill="#252642"/>
<path d="M205.12 69.6455C205.057 69.4879 204.904 69.3848 204.734 69.3848H200.682C200.529 69.3848 200.388 69.3005 200.315 69.1654L198.668 66.1038C198.607 65.9905 198.601 65.8555 198.653 65.7378L200.96 60.5132C201.026 60.3621 201.176 60.2646 201.341 60.2646H203.951C204.116 60.2646 204.266 60.3619 204.333 60.5128L208.976 70.9981C209.098 71.2738 208.896 71.584 208.595 71.584H206.186C206.016 71.584 205.863 71.4808 205.799 71.3233L205.12 69.6455ZM203.46 67.0239C203.755 67.0239 203.957 66.7254 203.847 66.4514L203.009 64.3648C202.869 64.016 202.375 64.016 202.235 64.3648L201.396 66.4514C201.286 66.7254 201.488 67.0239 201.783 67.0239H203.46Z" fill="#252642"/>
<path d="M210.143 60.6816C210.143 60.4513 210.33 60.2646 210.56 60.2646H212.928C213.158 60.2646 213.345 60.4513 213.345 60.6816V68.6282C213.345 68.8585 213.532 69.0452 213.762 69.0452H218.329C218.559 69.0452 218.746 69.2319 218.746 69.4622V71.1669C218.746 71.3973 218.559 71.584 218.329 71.584H210.56C210.33 71.584 210.143 71.3973 210.143 71.1669V60.6816Z" fill="#252642"/>
<path d="M225.547 71.8104C224.351 71.8104 223.273 71.557 222.313 71.0503C221.365 70.5437 220.615 69.8429 220.066 68.9482C219.527 68.0534 219.257 67.0454 219.257 65.9243C219.257 64.8031 219.527 63.7952 220.066 62.9004C220.615 62.0056 221.365 61.3049 222.313 60.7982C223.273 60.2915 224.351 60.0382 225.547 60.0382C226.744 60.0382 227.817 60.2915 228.765 60.7982C229.725 61.3049 230.474 62.0056 231.013 62.9004C231.563 63.7952 231.838 64.8031 231.838 65.9243C231.838 67.0454 231.563 68.0534 231.013 68.9482C230.474 69.8429 229.725 70.5437 228.765 71.0503C227.817 71.557 226.744 71.8104 225.547 71.8104ZM225.547 69.1584C226.119 69.1584 226.636 69.0236 227.1 68.7541C227.563 68.4846 227.93 68.1073 228.199 67.6222C228.469 67.1263 228.604 66.5603 228.604 65.9243C228.604 65.2882 228.469 64.7277 228.199 64.2425C227.93 63.7467 227.563 63.3639 227.1 63.0944C226.636 62.8249 226.119 62.6902 225.547 62.6902C224.976 62.6902 224.459 62.8249 223.995 63.0944C223.532 63.3639 223.165 63.7467 222.895 64.2425C222.626 64.7277 222.491 65.2882 222.491 65.9243C222.491 66.5603 222.626 67.1263 222.895 67.6222C223.165 68.1073 223.532 68.4846 223.995 68.7541C224.459 69.0236 224.976 69.1584 225.547 69.1584Z" fill="#252642"/>
<path d="M243.867 60.2646C244.098 60.2646 244.284 60.4513 244.284 60.6816V71.1669C244.284 71.3973 244.098 71.584 243.867 71.584H241.845C241.72 71.584 241.603 71.5286 241.523 71.433L237.39 66.4434C237.141 66.1426 236.652 66.3188 236.652 66.7095V71.1669C236.652 71.3973 236.465 71.584 236.235 71.584H233.932C233.701 71.584 233.515 71.3973 233.515 71.1669V60.6816C233.515 60.4513 233.701 60.2646 233.932 60.2646H235.954C236.079 60.2646 236.196 60.3199 236.276 60.4156L240.409 65.4051C240.658 65.706 241.147 65.5297 241.147 65.1391V60.6816C241.147 60.4513 241.334 60.2646 241.564 60.2646H243.867Z" fill="#252642"/>
<path d="M255.214 69.1099C255.444 69.1099 255.631 69.2966 255.631 69.5269V71.1669C255.631 71.3973 255.444 71.584 255.214 71.584H246.96C246.729 71.584 246.543 71.3973 246.543 71.1669V60.6816C246.543 60.4513 246.729 60.2646 246.96 60.2646H255.003C255.234 60.2646 255.42 60.4513 255.42 60.6816V62.3217C255.42 62.552 255.234 62.7387 255.003 62.7387H250.129C249.899 62.7387 249.712 62.9254 249.712 63.1557V64.2298C249.712 64.4601 249.899 64.6468 250.129 64.6468H254.324C254.554 64.6468 254.741 64.8335 254.741 65.0638V66.623C254.741 66.8533 254.554 67.0401 254.324 67.0401H250.129C249.899 67.0401 249.712 67.2268 249.712 67.4571V68.6929C249.712 68.9232 249.899 69.1099 250.129 69.1099H255.214Z" fill="#252642"/>
<path d="M53.07 94.0103V103.81H51.922L46.042 96.5023V103.81H44.642V94.0103H45.79L51.67 101.318V94.0103H53.07ZM58.8453 103.894C58.108 103.894 57.4453 103.731 56.8573 103.404C56.2693 103.078 55.8073 102.63 55.4713 102.06C55.1447 101.482 54.9813 100.828 54.9813 100.1C54.9813 99.3723 55.1447 98.7236 55.4713 98.1543C55.8073 97.5756 56.2693 97.1276 56.8573 96.8103C57.4453 96.4836 58.108 96.3203 58.8453 96.3203C59.5827 96.3203 60.2407 96.4836 60.8193 96.8103C61.4073 97.1276 61.8647 97.5756 62.1913 98.1543C62.5273 98.7236 62.6953 99.3723 62.6953 100.1C62.6953 100.828 62.5273 101.482 62.1913 102.06C61.8647 102.63 61.4073 103.078 60.8193 103.404C60.2407 103.731 59.5827 103.894 58.8453 103.894ZM58.8453 102.718C59.3213 102.718 59.746 102.611 60.1193 102.396C60.502 102.172 60.8007 101.864 61.0153 101.472C61.23 101.071 61.3373 100.614 61.3373 100.1C61.3373 99.587 61.23 99.1343 61.0153 98.7423C60.8007 98.341 60.502 98.033 60.1193 97.8183C59.746 97.6036 59.3213 97.4963 58.8453 97.4963C58.3693 97.4963 57.94 97.6036 57.5573 97.8183C57.184 98.033 56.8853 98.341 56.6613 98.7423C56.4467 99.1343 56.3393 99.587 56.3393 100.1C56.3393 100.614 56.4467 101.071 56.6613 101.472C56.8853 101.864 57.184 102.172 57.5573 102.396C57.94 102.611 58.3693 102.718 58.8453 102.718ZM68.376 96.3203C69.3187 96.3203 70.0654 96.5956 70.616 97.1463C71.176 97.6876 71.456 98.4856 71.456 99.5403V103.81H70.112V99.6943C70.112 98.9756 69.9394 98.4343 69.594 98.0703C69.2487 97.7063 68.754 97.5243 68.11 97.5243C67.382 97.5243 66.808 97.739 66.388 98.1683C65.968 98.5883 65.758 99.195 65.758 99.9883V103.81H64.414V96.3903H65.702V97.5103C65.9727 97.1276 66.3367 96.8336 66.794 96.6283C67.2607 96.423 67.788 96.3203 68.376 96.3203ZM81.4411 94.0103C82.7104 94.0103 83.7091 94.3136 84.4371 94.9203C85.1651 95.527 85.5291 96.3623 85.5291 97.4263C85.5291 98.4903 85.1651 99.3256 84.4371 99.9323C83.7091 100.539 82.7104 100.842 81.4411 100.842H79.0191V103.81H77.6191V94.0103H81.4411ZM81.3991 99.6243C82.2858 99.6243 82.9624 99.4376 83.4291 99.0643C83.8958 98.6816 84.1291 98.1356 84.1291 97.4263C84.1291 96.717 83.8958 96.1756 83.4291 95.8023C82.9624 95.4196 82.2858 95.2283 81.3991 95.2283H79.0191V99.6243H81.3991ZM88.4149 97.6363C88.6482 97.207 88.9935 96.8803 89.4509 96.6563C89.9082 96.4323 90.4635 96.3203 91.1169 96.3203V97.6223C91.0422 97.613 90.9395 97.6083 90.8089 97.6083C90.0809 97.6083 89.5069 97.8276 89.0869 98.2663C88.6762 98.6956 88.4709 99.3116 88.4709 100.114V103.81H87.1269V96.3903H88.4149V97.6363ZM95.743 103.894C95.0057 103.894 94.343 103.731 93.755 103.404C93.167 103.078 92.705 102.63 92.369 102.06C92.0423 101.482 91.879 100.828 91.879 100.1C91.879 99.3723 92.0423 98.7236 92.369 98.1543C92.705 97.5756 93.167 97.1276 93.755 96.8103C94.343 96.4836 95.0057 96.3203 95.743 96.3203C96.4803 96.3203 97.1383 96.4836 97.717 96.8103C98.305 97.1276 98.7623 97.5756 99.089 98.1543C99.425 98.7236 99.593 99.3723 99.593 100.1C99.593 100.828 99.425 101.482 99.089 102.06C98.7623 102.63 98.305 103.078 97.717 103.404C97.1383 103.731 96.4803 103.894 95.743 103.894ZM95.743 102.718C96.219 102.718 96.6437 102.611 97.017 102.396C97.3997 102.172 97.6983 101.864 97.913 101.472C98.1277 101.071 98.235 100.614 98.235 100.1C98.235 99.587 98.1277 99.1343 97.913 98.7423C97.6983 98.341 97.3997 98.033 97.017 97.8183C96.6437 97.6036 96.219 97.4963 95.743 97.4963C95.267 97.4963 94.8377 97.6036 94.455 97.8183C94.0817 98.033 93.783 98.341 93.559 98.7423C93.3443 99.1343 93.237 99.587 93.237 100.1C93.237 100.614 93.3443 101.071 93.559 101.472C93.783 101.864 94.0817 102.172 94.455 102.396C94.8377 102.611 95.267 102.718 95.743 102.718ZM104.028 94.4443C103.225 94.4443 102.824 94.8783 102.824 95.7463V96.3903H104.98V97.4963H102.852V103.81H101.508V97.4963H100.248V96.3903H101.508V95.7323C101.508 94.995 101.722 94.4116 102.152 93.9823C102.581 93.553 103.183 93.3383 103.958 93.3383C104.256 93.3383 104.536 93.3756 104.798 93.4503C105.059 93.525 105.283 93.6323 105.47 93.7723L105.064 94.7943C104.756 94.561 104.41 94.4443 104.028 94.4443ZM107.374 96.3903H108.718V103.81H107.374V96.3903ZM108.046 94.9623C107.784 94.9623 107.565 94.8783 107.388 94.7103C107.22 94.5423 107.136 94.337 107.136 94.0943C107.136 93.8516 107.22 93.6463 107.388 93.4783C107.565 93.301 107.784 93.2123 108.046 93.2123C108.307 93.2123 108.522 93.2963 108.69 93.4643C108.867 93.623 108.956 93.8236 108.956 94.0663C108.956 94.3183 108.867 94.533 108.69 94.7103C108.522 94.8783 108.307 94.9623 108.046 94.9623ZM115.31 103.376C115.114 103.544 114.872 103.675 114.582 103.768C114.293 103.852 113.994 103.894 113.686 103.894C112.94 103.894 112.361 103.694 111.95 103.292C111.54 102.891 111.334 102.317 111.334 101.57V97.4963H110.074V96.3903H111.334V94.7663H112.678V96.3903H114.806V97.4963H112.678V101.514C112.678 101.916 112.776 102.224 112.972 102.438C113.178 102.653 113.467 102.76 113.84 102.76C114.251 102.76 114.601 102.644 114.89 102.41L115.31 103.376ZM127.415 93.4223V103.81H126.127V102.634C125.828 103.045 125.45 103.358 124.993 103.572C124.536 103.787 124.032 103.894 123.481 103.894C122.762 103.894 122.118 103.736 121.549 103.418C120.98 103.101 120.532 102.658 120.205 102.088C119.888 101.51 119.729 100.847 119.729 100.1C119.729 99.3536 119.888 98.6956 120.205 98.1263C120.532 97.557 120.98 97.1136 121.549 96.7963C122.118 96.479 122.762 96.3203 123.481 96.3203C124.013 96.3203 124.503 96.423 124.951 96.6283C125.399 96.8243 125.772 97.1183 126.071 97.5103V93.4223H127.415ZM123.593 102.718C124.06 102.718 124.484 102.611 124.867 102.396C125.25 102.172 125.548 101.864 125.763 101.472C125.978 101.071 126.085 100.614 126.085 100.1C126.085 99.587 125.978 99.1343 125.763 98.7423C125.548 98.341 125.25 98.033 124.867 97.8183C124.484 97.6036 124.06 97.4963 123.593 97.4963C123.117 97.4963 122.688 97.6036 122.305 97.8183C121.932 98.033 121.633 98.341 121.409 98.7423C121.194 99.1343 121.087 99.587 121.087 100.1C121.087 100.614 121.194 101.071 121.409 101.472C121.633 101.864 121.932 102.172 122.305 102.396C122.688 102.611 123.117 102.718 123.593 102.718ZM132.996 103.894C132.259 103.894 131.596 103.731 131.008 103.404C130.42 103.078 129.958 102.63 129.622 102.06C129.295 101.482 129.132 100.828 129.132 100.1C129.132 99.3723 129.295 98.7236 129.622 98.1543C129.958 97.5756 130.42 97.1276 131.008 96.8103C131.596 96.4836 132.259 96.3203 132.996 96.3203C133.733 96.3203 134.391 96.4836 134.97 96.8103C135.558 97.1276 136.015 97.5756 136.342 98.1543C136.678 98.7236 136.846 99.3723 136.846 100.1C136.846 100.828 136.678 101.482 136.342 102.06C136.015 102.63 135.558 103.078 134.97 103.404C134.391 103.731 133.733 103.894 132.996 103.894ZM132.996 102.718C133.472 102.718 133.897 102.611 134.27 102.396C134.653 102.172 134.951 101.864 135.166 101.472C135.381 101.071 135.488 100.614 135.488 100.1C135.488 99.587 135.381 99.1343 135.166 98.7423C134.951 98.341 134.653 98.033 134.27 97.8183C133.897 97.6036 133.472 97.4963 132.996 97.4963C132.52 97.4963 132.091 97.6036 131.708 97.8183C131.335 98.033 131.036 98.341 130.812 98.7423C130.597 99.1343 130.49 99.587 130.49 100.1C130.49 100.614 130.597 101.071 130.812 101.472C131.036 101.864 131.335 102.172 131.708 102.396C132.091 102.611 132.52 102.718 132.996 102.718ZM147.847 96.3203C148.78 96.3203 149.517 96.591 150.059 97.1323C150.61 97.6736 150.885 98.4763 150.885 99.5403V103.81H149.541V99.6943C149.541 98.9756 149.373 98.4343 149.037 98.0703C148.71 97.7063 148.239 97.5243 147.623 97.5243C146.941 97.5243 146.4 97.739 145.999 98.1683C145.597 98.5883 145.397 99.195 145.397 99.9883V103.81H144.053V99.6943C144.053 98.9756 143.885 98.4343 143.549 98.0703C143.222 97.7063 142.751 97.5243 142.135 97.5243C141.453 97.5243 140.912 97.739 140.511 98.1683C140.109 98.5883 139.909 99.195 139.909 99.9883V103.81H138.565V96.3903H139.853V97.4963C140.123 97.1136 140.478 96.8243 140.917 96.6283C141.355 96.423 141.855 96.3203 142.415 96.3203C142.993 96.3203 143.507 96.437 143.955 96.6703C144.403 96.9036 144.748 97.2443 144.991 97.6923C145.271 97.263 145.658 96.927 146.153 96.6843C146.657 96.4416 147.221 96.3203 147.847 96.3203ZM159.965 100.142C159.965 100.245 159.955 100.38 159.937 100.548H153.917C154.001 101.202 154.285 101.729 154.771 102.13C155.265 102.522 155.877 102.718 156.605 102.718C157.491 102.718 158.205 102.42 158.747 101.822L159.489 102.69C159.153 103.082 158.733 103.381 158.229 103.586C157.734 103.792 157.179 103.894 156.563 103.894C155.779 103.894 155.083 103.736 154.477 103.418C153.87 103.092 153.399 102.639 153.063 102.06C152.736 101.482 152.573 100.828 152.573 100.1C152.573 99.3816 152.731 98.733 153.049 98.1543C153.375 97.5756 153.819 97.1276 154.379 96.8103C154.948 96.4836 155.587 96.3203 156.297 96.3203C157.006 96.3203 157.636 96.4836 158.187 96.8103C158.747 97.1276 159.181 97.5756 159.489 98.1543C159.806 98.733 159.965 99.3956 159.965 100.142ZM156.297 97.4543C155.653 97.4543 155.111 97.6503 154.673 98.0423C154.243 98.4343 153.991 98.9476 153.917 99.5823H158.677C158.602 98.957 158.345 98.4483 157.907 98.0563C157.477 97.655 156.941 97.4543 156.297 97.4543ZM163.819 103.894C163.212 103.894 162.629 103.815 162.069 103.656C161.509 103.488 161.07 103.278 160.753 103.026L161.313 101.962C161.64 102.196 162.036 102.382 162.503 102.522C162.97 102.662 163.441 102.732 163.917 102.732C165.093 102.732 165.681 102.396 165.681 101.724C165.681 101.5 165.602 101.323 165.443 101.192C165.284 101.062 165.084 100.968 164.841 100.912C164.608 100.847 164.272 100.777 163.833 100.702C163.236 100.609 162.746 100.502 162.363 100.38C161.99 100.259 161.668 100.054 161.397 99.7643C161.126 99.475 160.991 99.069 160.991 98.5463C160.991 97.8743 161.271 97.3376 161.831 96.9363C162.391 96.5256 163.142 96.3203 164.085 96.3203C164.58 96.3203 165.074 96.381 165.569 96.5023C166.064 96.6236 166.47 96.787 166.787 96.9923L166.213 98.0563C165.606 97.6643 164.892 97.4683 164.071 97.4683C163.502 97.4683 163.068 97.5616 162.769 97.7483C162.47 97.935 162.321 98.1823 162.321 98.4903C162.321 98.733 162.405 98.9243 162.573 99.0643C162.741 99.2043 162.946 99.307 163.189 99.3723C163.441 99.4376 163.791 99.5123 164.239 99.5963C164.836 99.699 165.317 99.811 165.681 99.9323C166.054 100.044 166.372 100.24 166.633 100.52C166.894 100.8 167.025 101.192 167.025 101.696C167.025 102.368 166.736 102.905 166.157 103.306C165.588 103.698 164.808 103.894 163.819 103.894ZM172.737 103.376C172.541 103.544 172.298 103.675 172.009 103.768C171.719 103.852 171.421 103.894 171.113 103.894C170.366 103.894 169.787 103.694 169.377 103.292C168.966 102.891 168.761 102.317 168.761 101.57V97.4963H167.501V96.3903H168.761V94.7663H170.105V96.3903H172.233V97.4963H170.105V101.514C170.105 101.916 170.203 102.224 170.399 102.438C170.604 102.653 170.893 102.76 171.267 102.76C171.677 102.76 172.027 102.644 172.317 102.41L172.737 103.376ZM174.222 96.3903H175.566V103.81H174.222V96.3903ZM174.894 94.9623C174.632 94.9623 174.413 94.8783 174.236 94.7103C174.068 94.5423 173.984 94.337 173.984 94.0943C173.984 93.8516 174.068 93.6463 174.236 93.4783C174.413 93.301 174.632 93.2123 174.894 93.2123C175.155 93.2123 175.37 93.2963 175.538 93.4643C175.715 93.623 175.804 93.8236 175.804 94.0663C175.804 94.3183 175.715 94.533 175.538 94.7103C175.37 94.8783 175.155 94.9623 174.894 94.9623ZM181.226 103.894C180.47 103.894 179.793 103.731 179.196 103.404C178.608 103.078 178.146 102.63 177.81 102.06C177.474 101.482 177.306 100.828 177.306 100.1C177.306 99.3723 177.474 98.7236 177.81 98.1543C178.146 97.5756 178.608 97.1276 179.196 96.8103C179.793 96.4836 180.47 96.3203 181.226 96.3203C181.898 96.3203 182.495 96.4556 183.018 96.7263C183.55 96.997 183.96 97.389 184.25 97.9023L183.228 98.5603C182.994 98.2056 182.705 97.9396 182.36 97.7623C182.014 97.585 181.632 97.4963 181.212 97.4963C180.726 97.4963 180.288 97.6036 179.896 97.8183C179.513 98.033 179.21 98.341 178.986 98.7423C178.771 99.1343 178.664 99.587 178.664 100.1C178.664 100.623 178.771 101.085 178.986 101.486C179.21 101.878 179.513 102.182 179.896 102.396C180.288 102.611 180.726 102.718 181.212 102.718C181.632 102.718 182.014 102.63 182.36 102.452C182.705 102.275 182.994 102.009 183.228 101.654L184.25 102.298C183.96 102.812 183.55 103.208 183.018 103.488C182.495 103.759 181.898 103.894 181.226 103.894ZM198.178 94.0103L193.88 103.81H192.494L188.182 94.0103H189.694L193.222 102.06L196.778 94.0103H198.178ZM199.105 96.3903H200.449V103.81H199.105V96.3903ZM199.777 94.9623C199.516 94.9623 199.296 94.8783 199.119 94.7103C198.951 94.5423 198.867 94.337 198.867 94.0943C198.867 93.8516 198.951 93.6463 199.119 93.4783C199.296 93.301 199.516 93.2123 199.777 93.2123C200.038 93.2123 200.253 93.2963 200.421 93.4643C200.598 93.623 200.687 93.8236 200.687 94.0663C200.687 94.3183 200.598 94.533 200.421 94.7103C200.253 94.8783 200.038 94.9623 199.777 94.9623ZM206.053 103.894C205.316 103.894 204.653 103.731 204.065 103.404C203.477 103.078 203.015 102.63 202.679 102.06C202.352 101.482 202.189 100.828 202.189 100.1C202.189 99.3723 202.352 98.7236 202.679 98.1543C203.015 97.5756 203.477 97.1276 204.065 96.8103C204.653 96.4836 205.316 96.3203 206.053 96.3203C206.79 96.3203 207.448 96.4836 208.027 96.8103C208.615 97.1276 209.072 97.5756 209.399 98.1543C209.735 98.7236 209.903 99.3723 209.903 100.1C209.903 100.828 209.735 101.482 209.399 102.06C209.072 102.63 208.615 103.078 208.027 103.404C207.448 103.731 206.79 103.894 206.053 103.894ZM206.053 102.718C206.529 102.718 206.954 102.611 207.327 102.396C207.71 102.172 208.008 101.864 208.223 101.472C208.438 101.071 208.545 100.614 208.545 100.1C208.545 99.587 208.438 99.1343 208.223 98.7423C208.008 98.341 207.71 98.033 207.327 97.8183C206.954 97.6036 206.529 97.4963 206.053 97.4963C205.577 97.4963 205.148 97.6036 204.765 97.8183C204.392 98.033 204.093 98.341 203.869 98.7423C203.654 99.1343 203.547 99.587 203.547 100.1C203.547 100.614 203.654 101.071 203.869 101.472C204.093 101.864 204.392 102.172 204.765 102.396C205.148 102.611 205.577 102.718 206.053 102.718ZM211.622 93.4223H212.966V103.81H211.622V93.4223ZM222.098 100.142C222.098 100.245 222.089 100.38 222.07 100.548H216.05C216.134 101.202 216.419 101.729 216.904 102.13C217.399 102.522 218.01 102.718 218.738 102.718C219.625 102.718 220.339 102.42 220.88 101.822L221.622 102.69C221.286 103.082 220.866 103.381 220.362 103.586C219.867 103.792 219.312 103.894 218.696 103.894C217.912 103.894 217.217 103.736 216.61 103.418C216.003 103.092 215.532 102.639 215.196 102.06C214.869 101.482 214.706 100.828 214.706 100.1C214.706 99.3816 214.865 98.733 215.182 98.1543C215.509 97.5756 215.952 97.1276 216.512 96.8103C217.081 96.4836 217.721 96.3203 218.43 96.3203C219.139 96.3203 219.769 96.4836 220.32 96.8103C220.88 97.1276 221.314 97.5756 221.622 98.1543C221.939 98.733 222.098 99.3956 222.098 100.142ZM218.43 97.4543C217.786 97.4543 217.245 97.6503 216.806 98.0423C216.377 98.4343 216.125 98.9476 216.05 99.5823H220.81C220.735 98.957 220.479 98.4483 220.04 98.0563C219.611 97.655 219.074 97.4543 218.43 97.4543ZM227.786 96.3203C228.729 96.3203 229.476 96.5956 230.026 97.1463C230.586 97.6876 230.866 98.4856 230.866 99.5403V103.81H229.522V99.6943C229.522 98.9756 229.35 98.4343 229.004 98.0703C228.659 97.7063 228.164 97.5243 227.52 97.5243C226.792 97.5243 226.218 97.739 225.798 98.1683C225.378 98.5883 225.168 99.195 225.168 99.9883V103.81H223.824V96.3903H225.112V97.5103C225.383 97.1276 225.747 96.8336 226.204 96.6283C226.671 96.423 227.198 96.3203 227.786 96.3203ZM236.489 103.894C235.733 103.894 235.056 103.731 234.459 103.404C233.871 103.078 233.409 102.63 233.073 102.06C232.737 101.482 232.569 100.828 232.569 100.1C232.569 99.3723 232.737 98.7236 233.073 98.1543C233.409 97.5756 233.871 97.1276 234.459 96.8103C235.056 96.4836 235.733 96.3203 236.489 96.3203C237.161 96.3203 237.758 96.4556 238.281 96.7263C238.813 96.997 239.223 97.389 239.513 97.9023L238.491 98.5603C238.257 98.2056 237.968 97.9396 237.623 97.7623C237.277 97.585 236.895 97.4963 236.475 97.4963C235.989 97.4963 235.551 97.6036 235.159 97.8183C234.776 98.033 234.473 98.341 234.249 98.7423C234.034 99.1343 233.927 99.587 233.927 100.1C233.927 100.623 234.034 101.085 234.249 101.486C234.473 101.878 234.776 102.182 235.159 102.396C235.551 102.611 235.989 102.718 236.475 102.718C236.895 102.718 237.277 102.63 237.623 102.452C237.968 102.275 238.257 102.009 238.491 101.654L239.513 102.298C239.223 102.812 238.813 103.208 238.281 103.488C237.758 103.759 237.161 103.894 236.489 103.894ZM247.709 100.142C247.709 100.245 247.7 100.38 247.681 100.548H241.661C241.745 101.202 242.03 101.729 242.515 102.13C243.01 102.522 243.621 102.718 244.349 102.718C245.236 102.718 245.95 102.42 246.491 101.822L247.233 102.69C246.897 103.082 246.477 103.381 245.973 103.586C245.479 103.792 244.923 103.894 244.307 103.894C243.523 103.894 242.828 103.736 242.221 103.418C241.615 103.092 241.143 102.639 240.807 102.06C240.481 101.482 240.317 100.828 240.317 100.1C240.317 99.3816 240.476 98.733 240.793 98.1543C241.12 97.5756 241.563 97.1276 242.123 96.8103C242.693 96.4836 243.332 96.3203 244.041 96.3203C244.751 96.3203 245.381 96.4836 245.931 96.8103C246.491 97.1276 246.925 97.5756 247.233 98.1543C247.551 98.733 247.709 99.3956 247.709 100.142ZM244.041 97.4543C243.397 97.4543 242.856 97.6503 242.417 98.0423C241.988 98.4343 241.736 98.9476 241.661 99.5823H246.421C246.347 98.957 246.09 98.4483 245.651 98.0563C245.222 97.655 244.685 97.4543 244.041 97.4543ZM256.107 103.922C255.37 103.922 254.656 103.81 253.965 103.586C253.284 103.353 252.747 103.054 252.355 102.69L252.873 101.598C253.247 101.934 253.723 102.21 254.301 102.424C254.889 102.63 255.491 102.732 256.107 102.732C256.919 102.732 257.526 102.597 257.927 102.326C258.329 102.046 258.529 101.678 258.529 101.22C258.529 100.884 258.417 100.614 258.193 100.408C257.979 100.194 257.708 100.03 257.381 99.9183C257.064 99.8063 256.611 99.6803 256.023 99.5403C255.286 99.363 254.689 99.1856 254.231 99.0083C253.783 98.831 253.396 98.5603 253.069 98.1963C252.752 97.823 252.593 97.3236 252.593 96.6983C252.593 96.1756 252.729 95.7043 252.999 95.2843C253.279 94.8643 253.699 94.5283 254.259 94.2763C254.819 94.0243 255.515 93.8983 256.345 93.8983C256.924 93.8983 257.493 93.973 258.053 94.1223C258.613 94.2716 259.094 94.4863 259.495 94.7663L259.033 95.8863C258.623 95.625 258.184 95.429 257.717 95.2983C257.251 95.1583 256.793 95.0883 256.345 95.0883C255.552 95.0883 254.955 95.233 254.553 95.5223C254.161 95.8116 253.965 96.185 253.965 96.6423C253.965 96.9783 254.077 97.2536 254.301 97.4683C254.525 97.6736 254.801 97.837 255.127 97.9583C255.463 98.0703 255.916 98.1916 256.485 98.3223C257.223 98.4996 257.815 98.677 258.263 98.8543C258.711 99.0316 259.094 99.3023 259.411 99.6663C259.738 100.03 259.901 100.52 259.901 101.136C259.901 101.65 259.761 102.121 259.481 102.55C259.201 102.97 258.777 103.306 258.207 103.558C257.638 103.801 256.938 103.922 256.107 103.922ZM268.527 96.3903V103.81H267.253V102.69C266.982 103.073 266.623 103.372 266.175 103.586C265.736 103.792 265.255 103.894 264.733 103.894C263.743 103.894 262.964 103.624 262.395 103.082C261.825 102.532 261.541 101.724 261.541 100.66V96.3903H262.885V100.506C262.885 101.225 263.057 101.771 263.403 102.144C263.748 102.508 264.243 102.69 264.887 102.69C265.596 102.69 266.156 102.476 266.567 102.046C266.977 101.617 267.183 101.01 267.183 100.226V96.3903H268.527ZM274.879 96.3203C275.598 96.3203 276.242 96.479 276.811 96.7963C277.381 97.1136 277.824 97.557 278.141 98.1263C278.468 98.6956 278.631 99.3536 278.631 100.1C278.631 100.847 278.468 101.51 278.141 102.088C277.824 102.658 277.381 103.101 276.811 103.418C276.242 103.736 275.598 103.894 274.879 103.894C274.347 103.894 273.857 103.792 273.409 103.586C272.971 103.381 272.597 103.082 272.289 102.69V106.526H270.945V96.3903H272.233V97.5663C272.532 97.1556 272.91 96.8476 273.367 96.6423C273.825 96.4276 274.329 96.3203 274.879 96.3203ZM274.767 102.718C275.243 102.718 275.668 102.611 276.041 102.396C276.424 102.172 276.723 101.864 276.937 101.472C277.161 101.071 277.273 100.614 277.273 100.1C277.273 99.587 277.161 99.1343 276.937 98.7423C276.723 98.341 276.424 98.033 276.041 97.8183C275.668 97.6036 275.243 97.4963 274.767 97.4963C274.301 97.4963 273.876 97.6083 273.493 97.8323C273.12 98.047 272.821 98.3503 272.597 98.7423C272.383 99.1343 272.275 99.587 272.275 100.1C272.275 100.614 272.383 101.071 272.597 101.472C272.812 101.864 273.111 102.172 273.493 102.396C273.876 102.611 274.301 102.718 274.767 102.718ZM284.282 96.3203C285.001 96.3203 285.645 96.479 286.214 96.7963C286.784 97.1136 287.227 97.557 287.544 98.1263C287.871 98.6956 288.034 99.3536 288.034 100.1C288.034 100.847 287.871 101.51 287.544 102.088C287.227 102.658 286.784 103.101 286.214 103.418C285.645 103.736 285.001 103.894 284.282 103.894C283.75 103.894 283.26 103.792 282.812 103.586C282.374 103.381 282 103.082 281.692 102.69V106.526H280.348V96.3903H281.636V97.5663C281.935 97.1556 282.313 96.8476 282.77 96.6423C283.228 96.4276 283.732 96.3203 284.282 96.3203ZM284.17 102.718C284.646 102.718 285.071 102.611 285.444 102.396C285.827 102.172 286.126 101.864 286.34 101.472C286.564 101.071 286.676 100.614 286.676 100.1C286.676 99.587 286.564 99.1343 286.34 98.7423C286.126 98.341 285.827 98.033 285.444 97.8183C285.071 97.6036 284.646 97.4963 284.17 97.4963C283.704 97.4963 283.279 97.6083 282.896 97.8323C282.523 98.047 282.224 98.3503 282 98.7423C281.786 99.1343 281.678 99.587 281.678 100.1C281.678 100.614 281.786 101.071 282 101.472C282.215 101.864 282.514 102.172 282.896 102.396C283.279 102.611 283.704 102.718 284.17 102.718ZM292.929 103.894C292.192 103.894 291.529 103.731 290.941 103.404C290.353 103.078 289.891 102.63 289.555 102.06C289.229 101.482 289.065 100.828 289.065 100.1C289.065 99.3723 289.229 98.7236 289.555 98.1543C289.891 97.5756 290.353 97.1276 290.941 96.8103C291.529 96.4836 292.192 96.3203 292.929 96.3203C293.667 96.3203 294.325 96.4836 294.903 96.8103C295.491 97.1276 295.949 97.5756 296.275 98.1543C296.611 98.7236 296.779 99.3723 296.779 100.1C296.779 100.828 296.611 101.482 296.275 102.06C295.949 102.63 295.491 103.078 294.903 103.404C294.325 103.731 293.667 103.894 292.929 103.894ZM292.929 102.718C293.405 102.718 293.83 102.611 294.203 102.396C294.586 102.172 294.885 101.864 295.099 101.472C295.314 101.071 295.421 100.614 295.421 100.1C295.421 99.587 295.314 99.1343 295.099 98.7423C294.885 98.341 294.586 98.033 294.203 97.8183C293.83 97.6036 293.405 97.4963 292.929 97.4963C292.453 97.4963 292.024 97.6036 291.641 97.8183C291.268 98.033 290.969 98.341 290.745 98.7423C290.531 99.1343 290.423 99.587 290.423 100.1C290.423 100.614 290.531 101.071 290.745 101.472C290.969 101.864 291.268 102.172 291.641 102.396C292.024 102.611 292.453 102.718 292.929 102.718ZM299.786 97.6363C300.019 97.207 300.365 96.8803 300.822 96.6563C301.279 96.4323 301.835 96.3203 302.488 96.3203V97.6223C302.413 97.613 302.311 97.6083 302.18 97.6083C301.452 97.6083 300.878 97.8276 300.458 98.2663C300.047 98.6956 299.842 99.3116 299.842 100.114V103.81H298.498V96.3903H299.786V97.6363ZM308.477 103.376C308.281 103.544 308.038 103.675 307.749 103.768C307.46 103.852 307.161 103.894 306.853 103.894C306.106 103.894 305.528 103.694 305.117 103.292C304.706 102.891 304.501 102.317 304.501 101.57V97.4963H303.241V96.3903H304.501V94.7663H305.845V96.3903H307.973V97.4963H305.845V101.514C305.845 101.916 305.943 102.224 306.139 102.438C306.344 102.653 306.634 102.76 307.007 102.76C307.418 102.76 307.768 102.644 308.057 102.41L308.477 103.376Z" fill="#147952"/>
<path d="M60.9263 139.846C58.5383 139.846 56.7023 137.974 56.7023 135.61C56.7023 133.246 58.5383 131.374 60.9503 131.374C63.3623 131.374 65.1743 133.198 65.1743 135.586C65.1743 137.974 63.3143 139.846 60.9263 139.846ZM60.9263 139.402C63.0623 139.402 64.7183 137.722 64.7183 135.586C64.7183 133.45 63.1103 131.818 60.9503 131.818C58.7783 131.818 57.1463 133.486 57.1463 135.61C57.1463 137.734 58.7783 139.402 60.9263 139.402ZM61.0343 138.106C59.5943 138.106 58.5383 137.074 58.5383 135.61C58.5383 134.146 59.5943 133.114 61.0343 133.114C61.8503 133.114 62.5463 133.462 62.9423 134.038L62.4263 134.422C62.0903 133.954 61.5863 133.738 61.0223 133.738C60.0023 133.738 59.2223 134.482 59.2223 135.61C59.2223 136.738 60.0023 137.482 61.0223 137.482C61.5863 137.482 62.0903 137.266 62.4263 136.798L62.9423 137.17C62.5463 137.758 61.8503 138.106 61.0343 138.106ZM70.0654 133.45C71.6014 133.45 72.6574 134.338 72.6574 136.15V139.81H71.8054V136.234C71.8054 134.902 71.1094 134.218 69.9094 134.218C68.5534 134.218 67.7014 135.058 67.7014 136.498V139.81H66.8494V133.498H67.6654V134.662C68.1214 133.894 68.9734 133.45 70.0654 133.45ZM80.3819 136.654C80.3819 136.726 80.3699 136.822 80.3699 136.918H75.0899C75.1859 138.238 76.1939 139.114 77.5739 139.114C78.3419 139.114 79.0259 138.838 79.5059 138.286L79.9859 138.838C79.4219 139.51 78.5459 139.87 77.5499 139.87C75.5819 139.87 74.2379 138.526 74.2379 136.654C74.2379 134.782 75.5459 133.45 77.3219 133.45C79.0979 133.45 80.3819 134.758 80.3819 136.654ZM77.3219 134.182C76.0979 134.182 75.1979 135.046 75.0899 136.282H79.5659C79.4579 135.046 78.5579 134.182 77.3219 134.182ZM86.3429 133.498H87.1829L84.3749 139.81H83.4989L80.7029 133.498H81.5909L83.9549 138.874L86.3429 133.498ZM93.5951 136.654C93.5951 136.726 93.5831 136.822 93.5831 136.918H88.3031C88.3991 138.238 89.4071 139.114 90.7871 139.114C91.5551 139.114 92.2391 138.838 92.7191 138.286L93.1991 138.838C92.6351 139.51 91.7591 139.87 90.7631 139.87C88.7951 139.87 87.4511 138.526 87.4511 136.654C87.4511 134.782 88.7591 133.45 90.5351 133.45C92.3111 133.45 93.5951 134.758 93.5951 136.654ZM90.5351 134.182C89.3111 134.182 88.4111 135.046 88.3031 136.282H92.7791C92.6711 135.046 91.7711 134.182 90.5351 134.182ZM96.0252 134.734C96.4212 133.894 97.2252 133.45 98.3892 133.45V134.278C98.3172 134.278 98.2452 134.266 98.1852 134.266C96.8652 134.266 96.0612 135.106 96.0612 136.594V139.81H95.2092V133.498H96.0252V134.734ZM105.261 136.654C105.261 136.726 105.249 136.822 105.249 136.918H99.9693C100.065 138.238 101.073 139.114 102.453 139.114C103.221 139.114 103.905 138.838 104.385 138.286L104.865 138.838C104.301 139.51 103.425 139.87 102.429 139.87C100.461 139.87 99.1173 138.526 99.1173 136.654C99.1173 134.782 100.425 133.45 102.201 133.45C103.977 133.45 105.261 134.758 105.261 136.654ZM102.201 134.182C100.977 134.182 100.077 135.046 99.9693 136.282H104.445C104.337 135.046 103.437 134.182 102.201 134.182ZM111.222 133.498H112.062L109.254 139.81H108.378L105.582 133.498H106.47L108.834 138.874L111.222 133.498ZM118.474 136.654C118.474 136.726 118.462 136.822 118.462 136.918H113.182C113.278 138.238 114.286 139.114 115.666 139.114C116.434 139.114 117.118 138.838 117.598 138.286L118.078 138.838C117.514 139.51 116.638 139.87 115.642 139.87C113.674 139.87 112.33 138.526 112.33 136.654C112.33 134.782 113.638 133.45 115.414 133.45C117.19 133.45 118.474 134.758 118.474 136.654ZM115.414 134.182C114.19 134.182 113.29 135.046 113.182 136.282H117.658C117.55 135.046 116.65 134.182 115.414 134.182ZM120.905 134.734C121.301 133.894 122.105 133.45 123.269 133.45V134.278C123.197 134.278 123.125 134.266 123.065 134.266C121.745 134.266 120.941 135.106 120.941 136.594V139.81H120.089V133.498H120.905V134.734ZM126.888 133.45C128.52 133.45 129.444 134.266 129.444 135.898V139.81H128.628V138.826C128.244 139.474 127.5 139.87 126.456 139.87C125.028 139.87 124.152 139.126 124.152 138.034C124.152 137.062 124.776 136.246 126.588 136.246H128.592V135.862C128.592 134.782 127.98 134.194 126.804 134.194C125.988 134.194 125.22 134.482 124.704 134.938L124.32 134.302C124.956 133.762 125.892 133.45 126.888 133.45ZM126.588 139.198C127.548 139.198 128.256 138.742 128.592 137.914V136.882H126.612C125.388 136.882 124.992 137.362 124.992 138.01C124.992 138.742 125.58 139.198 126.588 139.198ZM131.638 139.81V130.906H132.49V139.81H131.638ZM137.32 139.87C135.472 139.87 134.104 138.526 134.104 136.654C134.104 134.782 135.472 133.45 137.32 133.45C139.168 133.45 140.524 134.782 140.524 136.654C140.524 138.526 139.168 139.87 137.32 139.87ZM137.32 139.114C138.664 139.114 139.66 138.13 139.66 136.654C139.66 135.178 138.664 134.194 137.32 134.194C135.976 134.194 134.968 135.178 134.968 136.654C134.968 138.13 135.976 139.114 137.32 139.114ZM145.36 133.45C146.896 133.45 147.952 134.338 147.952 136.15V139.81H147.1V136.234C147.1 134.902 146.404 134.218 145.204 134.218C143.848 134.218 142.996 135.058 142.996 136.498V139.81H142.144V133.498H142.96V134.662C143.416 133.894 144.268 133.45 145.36 133.45ZM155.676 136.654C155.676 136.726 155.664 136.822 155.664 136.918H150.384C150.48 138.238 151.488 139.114 152.868 139.114C153.636 139.114 154.32 138.838 154.8 138.286L155.28 138.838C154.716 139.51 153.84 139.87 152.844 139.87C150.876 139.87 149.532 138.526 149.532 136.654C149.532 134.782 150.84 133.45 152.616 133.45C154.392 133.45 155.676 134.758 155.676 136.654ZM152.616 134.182C151.392 134.182 150.492 135.046 150.384 136.282H154.86C154.752 135.046 153.852 134.182 152.616 134.182ZM160.863 139.042H165.483V139.81H159.591V139.198L163.083 135.778C164.031 134.842 164.211 134.278 164.211 133.702C164.211 132.73 163.527 132.13 162.243 132.13C161.259 132.13 160.503 132.43 159.951 133.066L159.339 132.538C159.987 131.77 161.031 131.338 162.315 131.338C164.019 131.338 165.099 132.202 165.099 133.606C165.099 134.41 164.847 135.13 163.719 136.234L160.863 139.042ZM169.749 139.882C167.805 139.882 166.401 138.286 166.401 135.61C166.401 132.934 167.805 131.338 169.749 131.338C171.693 131.338 173.109 132.934 173.109 135.61C173.109 138.286 171.693 139.882 169.749 139.882ZM169.749 139.09C171.213 139.09 172.221 137.854 172.221 135.61C172.221 133.366 171.213 132.13 169.749 132.13C168.285 132.13 167.277 133.366 167.277 135.61C167.277 137.854 168.285 139.09 169.749 139.09ZM175.318 139.042H179.938V139.81H174.046V139.198L177.538 135.778C178.486 134.842 178.666 134.278 178.666 133.702C178.666 132.73 177.982 132.13 176.698 132.13C175.714 132.13 174.958 132.43 174.406 133.066L173.794 132.538C174.442 131.77 175.486 131.338 176.77 131.338C178.474 131.338 179.554 132.202 179.554 133.606C179.554 134.41 179.302 135.13 178.174 136.234L175.318 139.042ZM182.019 139.042H186.639V139.81H180.747V139.198L184.239 135.778C185.187 134.842 185.367 134.278 185.367 133.702C185.367 132.73 184.683 132.13 183.399 132.13C182.415 132.13 181.659 132.43 181.107 133.066L180.495 132.538C181.143 131.77 182.187 131.338 183.471 131.338C185.175 131.338 186.255 132.202 186.255 133.606C186.255 134.41 186.003 135.13 184.875 136.234L182.019 139.042ZM197.644 139.81L196.636 137.566H191.956L190.948 139.81H190.024L193.864 131.41H194.74L198.58 139.81H197.644ZM192.28 136.846H196.312L194.296 132.334L192.28 136.846ZM199.669 139.81V130.906H200.521V139.81H199.669ZM202.772 139.81V130.906H203.624V139.81H202.772ZM209.711 134.734C210.107 133.894 210.911 133.45 212.075 133.45V134.278C212.003 134.278 211.931 134.266 211.871 134.266C210.551 134.266 209.747 135.106 209.747 136.594V139.81H208.895V133.498H209.711V134.734ZM213.93 132.118C213.582 132.118 213.306 131.842 213.306 131.506C213.306 131.182 213.582 130.906 213.93 130.906C214.278 130.906 214.554 131.17 214.554 131.494C214.554 131.842 214.29 132.118 213.93 132.118ZM213.498 139.81V133.498H214.35V139.81H213.498ZM221.628 133.498H222.444V139.042C222.444 141.214 221.376 142.198 219.288 142.198C218.136 142.198 217.008 141.85 216.348 141.226L216.78 140.578C217.38 141.118 218.292 141.442 219.264 141.442C220.86 141.442 221.592 140.71 221.592 139.15V138.346C221.064 139.15 220.164 139.57 219.132 139.57C217.332 139.57 215.964 138.31 215.964 136.498C215.964 134.686 217.332 133.45 219.132 133.45C220.188 133.45 221.1 133.882 221.628 134.71V133.498ZM219.216 138.814C220.608 138.814 221.616 137.866 221.616 136.498C221.616 135.13 220.608 134.194 219.216 134.194C217.824 134.194 216.828 135.13 216.828 136.498C216.828 137.866 217.824 138.814 219.216 138.814ZM227.923 133.45C229.459 133.45 230.515 134.338 230.515 136.15V139.81H229.663V136.234C229.663 134.902 228.967 134.218 227.767 134.218C226.411 134.218 225.559 135.058 225.559 136.498V139.81H224.707V130.906H225.559V134.602C226.027 133.87 226.855 133.45 227.923 133.45ZM235.732 138.814L236.032 139.426C235.696 139.726 235.192 139.87 234.7 139.87C233.512 139.87 232.852 139.198 232.852 138.034V134.218H231.724V133.498H232.852V132.118H233.704V133.498H235.624V134.218H233.704V137.986C233.704 138.73 234.088 139.138 234.796 139.138C235.144 139.138 235.492 139.03 235.732 138.814ZM239.155 139.87C238.111 139.87 237.103 139.534 236.587 139.09L236.971 138.418C237.475 138.814 238.327 139.126 239.215 139.126C240.415 139.126 240.907 138.718 240.907 138.094C240.907 136.45 236.815 137.746 236.815 135.25C236.815 134.218 237.703 133.45 239.311 133.45C240.127 133.45 241.015 133.678 241.543 134.038L241.171 134.722C240.619 134.338 239.959 134.182 239.311 134.182C238.171 134.182 237.667 134.626 237.667 135.226C237.667 136.93 241.759 135.646 241.759 138.07C241.759 139.162 240.799 139.87 239.155 139.87ZM247.051 134.734C247.447 133.894 248.251 133.45 249.415 133.45V134.278C249.343 134.278 249.271 134.266 249.211 134.266C247.891 134.266 247.087 135.106 247.087 136.594V139.81H246.235V133.498H247.051V134.734ZM256.287 136.654C256.287 136.726 256.275 136.822 256.275 136.918H250.995C251.091 138.238 252.099 139.114 253.479 139.114C254.247 139.114 254.931 138.838 255.411 138.286L255.891 138.838C255.327 139.51 254.451 139.87 253.455 139.87C251.487 139.87 250.143 138.526 250.143 136.654C250.143 134.782 251.451 133.45 253.227 133.45C255.003 133.45 256.287 134.758 256.287 136.654ZM253.227 134.182C252.003 134.182 251.103 135.046 250.995 136.282H255.471C255.363 135.046 254.463 134.182 253.227 134.182ZM259.593 139.87C258.549 139.87 257.541 139.534 257.025 139.09L257.409 138.418C257.913 138.814 258.765 139.126 259.653 139.126C260.853 139.126 261.345 138.718 261.345 138.094C261.345 136.45 257.253 137.746 257.253 135.25C257.253 134.218 258.141 133.45 259.749 133.45C260.565 133.45 261.453 133.678 261.981 134.038L261.609 134.722C261.057 134.338 260.397 134.182 259.749 134.182C258.609 134.182 258.105 134.626 258.105 135.226C258.105 136.93 262.197 135.646 262.197 138.07C262.197 139.162 261.237 139.87 259.593 139.87ZM269.16 136.654C269.16 136.726 269.148 136.822 269.148 136.918H263.868C263.964 138.238 264.972 139.114 266.352 139.114C267.12 139.114 267.804 138.838 268.284 138.286L268.764 138.838C268.2 139.51 267.324 139.87 266.328 139.87C264.36 139.87 263.016 138.526 263.016 136.654C263.016 134.782 264.324 133.45 266.1 133.45C267.876 133.45 269.16 134.758 269.16 136.654ZM266.1 134.182C264.876 134.182 263.976 135.046 263.868 136.282H268.344C268.236 135.046 267.336 134.182 266.1 134.182ZM271.59 134.734C271.986 133.894 272.79 133.45 273.954 133.45V134.278C273.882 134.278 273.81 134.266 273.75 134.266C272.43 134.266 271.626 135.106 271.626 136.594V139.81H270.774V133.498H271.59V134.734ZM280.111 133.498H280.951L278.143 139.81H277.267L274.471 133.498H275.359L277.723 138.874L280.111 133.498ZM287.363 136.654C287.363 136.726 287.351 136.822 287.351 136.918H282.071C282.167 138.238 283.175 139.114 284.555 139.114C285.323 139.114 286.007 138.838 286.487 138.286L286.967 138.838C286.403 139.51 285.527 139.87 284.531 139.87C282.563 139.87 281.219 138.526 281.219 136.654C281.219 134.782 282.527 133.45 284.303 133.45C286.079 133.45 287.363 134.758 287.363 136.654ZM284.303 134.182C283.079 134.182 282.179 135.046 282.071 136.282H286.547C286.439 135.046 285.539 134.182 284.303 134.182ZM293.885 130.906H294.737V139.81H293.921V138.562C293.405 139.414 292.529 139.87 291.485 139.87C289.685 139.87 288.341 138.562 288.341 136.654C288.341 134.746 289.685 133.45 291.485 133.45C292.493 133.45 293.357 133.882 293.885 134.698V130.906ZM291.557 139.114C292.889 139.114 293.897 138.13 293.897 136.654C293.897 135.178 292.889 134.194 291.557 134.194C290.213 134.194 289.205 135.178 289.205 136.654C289.205 138.13 290.213 139.114 291.557 139.114Z" fill="#0B0B14"/>
<defs>
<linearGradient id="paint0_linear_2390_438" x1="169.163" y1="0.318647" x2="169.163" y2="51.4487" gradientUnits="userSpaceOnUse">
<stop stop-color="#4AC16A"/>
<stop offset="1" stop-color="#147952"/>
</linearGradient>
<linearGradient id="paint1_linear_2390_438" x1="184.157" y1="0.263306" x2="184.157" y2="16.4209" gradientUnits="userSpaceOnUse">
<stop stop-color="#4AC16A"/>
<stop offset="1" stop-color="#147952"/>
</linearGradient>
<linearGradient id="paint2_linear_2390_438" x1="153.911" y1="0.553474" x2="153.911" y2="40.2551" gradientUnits="userSpaceOnUse">
<stop stop-color="#4AC16A"/>
<stop offset="1" stop-color="#147952"/>
</linearGradient>
<linearGradient id="paint3_linear_2390_438" x1="198.95" y1="0.263306" x2="198.95" y2="16.4209" gradientUnits="userSpaceOnUse">
<stop stop-color="#4AC16A"/>
<stop offset="1" stop-color="#147952"/>
</linearGradient>
<linearGradient id="paint4_linear_2390_438" x1="191.777" y1="18.9365" x2="191.777" y2="51.2705" gradientUnits="userSpaceOnUse">
<stop stop-color="#4AC16A"/>
<stop offset="1" stop-color="#147952"/>
</linearGradient>
</defs>
</svg>
