<svg width="160" height="72" viewBox="0 0 160 72" fill="none" xmlns="http://www.w3.org/2000/svg">
<path d="M67.0098 42.3309V0.486454C67.0098 0.258052 67.1995 0.0724605 67.4279 0.0772387C76.1865 0.26051 78.7976 6.19792 79.003 9.1898V49.951C79.003 50.2833 78.6308 50.4799 78.3563 50.2926L67.1902 42.6725C67.0773 42.5955 67.0098 42.4676 67.0098 42.3309Z" fill="url(#paint0_linear_2424_620)"/>
<path d="M81.8979 9.58478V15.4802C81.8979 15.7086 82.0831 15.8916 82.3115 15.8916H93.6844C93.9128 15.8916 94.0979 15.7064 94.0979 15.478V0.418071C94.0979 0.218204 93.9545 0.0490153 93.7554 0.0313164C92.7923 -0.0543107 89.9102 -0.101298 86.5505 1.83055C82.4149 4.20854 81.8979 8.13733 81.8979 9.58478Z" fill="url(#paint1_linear_2424_620)"/>
<path d="M53.7369 7.60211C57.2682 1.40828 62.2515 0.454131 63.7031 0.307147C63.9303 0.284138 64.1147 0.465535 64.1147 0.693934V38.9403C64.1147 39.3147 63.664 39.4961 63.4124 39.219C61.7095 37.3432 57.3072 32.3378 54.6709 27.9171C51.3499 22.3485 49.729 14.6317 53.7369 7.60211Z" fill="url(#paint2_linear_2424_620)"/>
<path fill-rule="evenodd" clip-rule="evenodd" d="M108.779 15.8916C109.008 15.8916 109.193 15.7064 109.193 15.478V9.58478C109.193 8.13733 108.65 4.20854 104.304 1.83055C100.755 -0.111073 97.714 -0.0537845 96.7173 0.032619C96.5168 0.0499955 96.3726 0.219876 96.3726 0.421074V15.478C96.3726 15.7064 96.5577 15.8916 96.7861 15.8916H108.779ZM102.891 6.48306C102.051 6.48306 101.37 7.16406 101.37 8.00412V10.0281C101.37 10.8682 102.051 11.5492 102.891 11.5492C103.731 11.5492 104.412 10.8682 104.412 10.0281V8.00412C104.412 7.16406 103.731 6.48306 102.891 6.48306Z" fill="url(#paint3_linear_2424_620)"/>
<path fill-rule="evenodd" clip-rule="evenodd" d="M81.8979 19.0967C81.8979 18.8683 82.0831 18.6831 82.3115 18.6831H108.542C108.782 18.6831 108.972 18.8837 108.947 19.1223C108.554 22.7853 106.223 30.9523 99.5052 37.6839C92.9292 44.2736 85.7771 48.7387 82.4866 50.439C82.2156 50.579 81.8979 50.3797 81.8979 50.0747V36.9954C81.8979 36.966 81.9008 36.9376 81.9073 36.9088C82.2735 35.2947 83.8886 32.1487 87.5239 32.1487H90.9963C91.2247 32.1487 91.4098 31.9635 91.4098 31.7351V29.6411C91.4098 29.4127 91.2247 29.2275 90.9963 29.2275H87.5239C85.6486 29.2623 81.8979 28.7264 81.8979 26.3043V19.0967ZM93.4776 29.2275C93.2492 29.2275 93.0641 29.4127 93.0641 29.6411V31.7351C93.0641 31.9635 93.2492 32.1487 93.4776 32.1487H95.3378C96.5367 32.2822 97.0658 31.6068 97.0658 30.7797C97.0658 29.9526 96.4463 29.3509 95.3378 29.2275H93.4776Z" fill="url(#paint4_linear_2424_620)"/>
<path d="M10.7222 59.991C10.9525 59.991 11.1392 60.1777 11.1392 60.4081V70.8934C11.1392 71.1237 10.9525 71.3104 10.7222 71.3104H8.69948C8.57528 71.3104 8.45756 71.2551 8.37833 71.1594L4.24489 66.1699C3.99567 65.869 3.50671 66.0453 3.50671 66.4359V70.8934C3.50671 71.1237 3.32 71.3104 3.08968 71.3104H0.786659C0.55634 71.3104 0.369629 71.1237 0.369629 70.8934V60.4081C0.369629 60.1777 0.556339 59.991 0.786658 59.991H2.80936C2.93355 59.991 3.05128 60.0464 3.13051 60.142L7.26395 65.1316C7.51316 65.4324 8.00212 65.2562 8.00212 64.8655V60.4081C8.00212 60.1777 8.18883 59.991 8.41915 59.991H10.7222Z" fill="#252642"/>
<path d="M22.0685 68.8363C22.2988 68.8363 22.4855 69.023 22.4855 69.2533V70.8934C22.4855 71.1237 22.2988 71.3104 22.0685 71.3104H13.8147C13.5844 71.3104 13.3976 71.1237 13.3976 70.8934V60.4081C13.3976 60.1777 13.5844 59.991 13.8147 59.991H21.8582C22.0886 59.991 22.2753 60.1777 22.2753 60.4081V62.0481C22.2753 62.2784 22.0886 62.4651 21.8582 62.4651H16.9841C16.7538 62.4651 16.5671 62.6518 16.5671 62.8822V63.9562C16.5671 64.1865 16.7538 64.3733 16.9841 64.3733H21.1791C21.4094 64.3733 21.5961 64.56 21.5961 64.7903V66.3495C21.5961 66.5798 21.4094 66.7665 21.1791 66.7665H16.9841C16.7538 66.7665 16.5671 66.9532 16.5671 67.1835V68.4193C16.5671 68.6496 16.7538 68.8363 16.9841 68.8363H22.0685Z" fill="#252642"/>
<path d="M34.953 59.991C35.2523 59.991 35.4542 60.2972 35.3363 60.5723L30.8426 71.0577C30.7768 71.211 30.6261 71.3104 30.4592 71.3104H27.8563C27.6893 71.3104 27.5384 71.2108 27.4728 71.0572L22.9941 60.5719C22.8766 60.2968 23.0784 59.991 23.3776 59.991H25.9285C26.0968 59.991 26.2487 60.0923 26.3134 60.2477L28.8979 66.4505C29.0399 66.7913 29.5221 66.7931 29.6666 66.4534L32.308 60.2448C32.3735 60.0909 32.5245 59.991 32.6918 59.991H34.953Z" fill="#252642"/>
<path d="M44.9188 68.8363C45.1491 68.8363 45.3359 69.023 45.3359 69.2533V70.8934C45.3359 71.1237 45.1491 71.3104 44.9188 71.3104H36.665C36.4347 71.3104 36.248 71.1237 36.248 70.8934V60.4081C36.248 60.1777 36.4347 59.991 36.665 59.991H44.7086C44.9389 59.991 45.1256 60.1777 45.1256 60.4081V62.0481C45.1256 62.2784 44.9389 62.4651 44.7086 62.4651H39.8345C39.6041 62.4651 39.4174 62.6518 39.4174 62.8822V63.9562C39.4174 64.1865 39.6041 64.3733 39.8345 64.3733H44.0294C44.2598 64.3733 44.4465 64.56 44.4465 64.7903V66.3495C44.4465 66.5798 44.2598 66.7665 44.0294 66.7665H39.8345C39.6041 66.7665 39.4174 66.9532 39.4174 67.1835V68.4193C39.4174 68.6496 39.6041 68.8363 39.8345 68.8363H44.9188Z" fill="#252642"/>
<path d="M52.185 68.4846C52.1073 68.3708 51.9783 68.3027 51.8405 68.3027H50.7314C50.5011 68.3027 50.3144 68.4894 50.3144 68.7197V70.8934C50.3144 71.1237 50.1276 71.3104 49.8973 71.3104H47.5296C47.2993 71.3104 47.1126 71.1237 47.1126 70.8934V60.4081C47.1126 60.1777 47.2993 59.991 47.5296 59.991H52.2872C52.3413 59.991 52.4142 59.9925 52.4848 59.9943C52.6317 59.9981 52.7649 60.0809 52.8353 60.2099L56.2579 66.4825C56.349 66.6496 56.3155 66.8571 56.1714 66.9816C55.9995 67.1302 55.7568 67.3308 55.5144 67.5009C55.3056 67.6475 55.2308 67.9423 55.3752 68.1526L57.0944 70.6574C57.2843 70.9341 57.0862 71.3104 56.7505 71.3104H54.3347C54.1969 71.3104 54.068 71.2423 53.9903 71.1285L52.185 68.4846ZM54.0821 64.1792C54.0821 63.651 53.915 63.2413 53.5808 62.9502C53.2466 62.6592 52.7507 62.5136 52.0931 62.5136H50.7314C50.5011 62.5136 50.3144 62.7004 50.3144 62.9307V65.4116C50.3144 65.6419 50.5011 65.8286 50.7314 65.8286H52.0931C52.7507 65.8286 53.2466 65.6885 53.5808 65.4082C53.915 65.1171 54.0821 64.7074 54.0821 64.1792Z" fill="#252642"/>
<path d="M66.0853 68.8363C66.3156 68.8363 66.5023 69.023 66.5023 69.2533V70.8934C66.5023 71.1237 66.3156 71.3104 66.0853 71.3104H61.6232C61.4703 71.3104 61.3297 71.2267 61.2567 71.0923L57.465 64.1055C57.4318 64.0444 57.4145 63.976 57.4145 63.9066V60.4081C57.4145 60.1777 57.6012 59.991 57.8315 59.991H65.8751C66.1054 59.991 66.2921 60.1777 66.2921 60.4081V62.0481C66.2921 62.2784 66.1054 62.4651 65.8751 62.4651H61.0009C60.7706 62.4651 60.5839 62.6518 60.5839 62.8822V63.9562C60.5839 64.1865 60.7706 64.3733 61.0009 64.3733H65.1959C65.4262 64.3733 65.6129 64.56 65.6129 64.7903V66.3495C65.6129 66.5798 65.4262 66.7665 65.1959 66.7665H61.0009C60.7706 66.7665 60.5839 66.9532 60.5839 67.1835V68.4193C60.5839 68.6496 60.7706 68.8363 61.0009 68.8363H66.0853Z" fill="#252642"/>
<path d="M78.9698 59.991C79.2692 59.991 79.471 60.2972 79.3531 60.5723L74.8594 71.0577C74.7937 71.211 74.6429 71.3104 74.4761 71.3104H71.8731C71.7061 71.3104 71.5552 71.2108 71.4896 71.0572L67.0109 60.5719C66.8934 60.2968 67.0952 59.991 67.3944 59.991H69.9453C70.1136 59.991 70.2655 60.0923 70.3302 60.2477L72.9148 66.4505C73.0568 66.7913 73.5389 66.7931 73.6834 66.4534L76.3248 60.2448C76.3903 60.0909 76.5413 59.991 76.7086 59.991H78.9698Z" fill="#252642"/>
<path d="M88.9356 68.8363C89.1659 68.8363 89.3527 69.023 89.3527 69.2533V70.8934C89.3527 71.1237 89.1659 71.3104 88.9356 71.3104H80.6818C80.4515 71.3104 80.2648 71.1237 80.2648 70.8934V60.4081C80.2648 60.1777 80.4515 59.991 80.6818 59.991H88.7254C88.9557 59.991 89.1424 60.1777 89.1424 60.4081V62.0481C89.1424 62.2784 88.9557 62.4651 88.7254 62.4651H83.8513C83.621 62.4651 83.4342 62.6518 83.4342 62.8822V63.9562C83.4342 64.1865 83.621 64.3733 83.8513 64.3733H88.0463C88.2766 64.3733 88.4633 64.56 88.4633 64.7903V66.3495C88.4633 66.5798 88.2766 66.7665 88.0463 66.7665H83.8513C83.621 66.7665 83.4342 66.9532 83.4342 67.1835V68.4193C83.4342 68.6496 83.621 68.8363 83.8513 68.8363H88.9356Z" fill="#252642"/>
<path d="M96.2018 68.4846C96.1241 68.3708 95.9952 68.3027 95.8574 68.3027H94.7482C94.5179 68.3027 94.3312 68.4894 94.3312 68.7197V70.8934C94.3312 71.1237 94.1445 71.3104 93.9141 71.3104H91.5464C91.3161 71.3104 91.1294 71.1237 91.1294 70.8934V60.4081C91.1294 60.1777 91.3161 59.991 91.5464 59.991H96.304C96.4107 59.991 96.5664 59.9967 96.6954 60.0023C96.8394 60.0085 96.969 60.0903 97.0383 60.2167L100.4 66.3459C100.489 66.5078 100.461 66.7085 100.326 66.8345C100.129 67.0181 99.8289 67.2853 99.5302 67.4992C99.3227 67.6477 99.2476 67.9423 99.392 68.1526L101.111 70.6574C101.301 70.9341 101.103 71.3104 100.767 71.3104H98.3515C98.2137 71.3104 98.0848 71.2423 98.0071 71.1285L96.2018 68.4846ZM98.0989 64.1792C98.0989 63.651 97.9318 63.2413 97.5976 62.9502C97.2634 62.6592 96.7675 62.5136 96.1099 62.5136H94.7482C94.5179 62.5136 94.3312 62.7004 94.3312 62.9307V65.4116C94.3312 65.6419 94.5179 65.8286 94.7482 65.8286H96.1099C96.7675 65.8286 97.2634 65.6885 97.5976 65.4082C97.9318 65.1171 98.0989 64.7074 98.0989 64.1792Z" fill="#252642"/>
<path d="M109.121 69.3719C109.057 69.2143 108.904 69.1112 108.734 69.1112H104.683C104.529 69.1112 104.388 69.0269 104.315 68.8918L102.668 65.8302C102.607 65.717 102.602 65.5819 102.654 65.4642L104.96 60.2397C105.027 60.0885 105.176 59.991 105.341 59.991H107.951C108.116 59.991 108.266 60.0883 108.333 60.2392L112.976 70.7245C113.098 71.0002 112.897 71.3104 112.595 71.3104H110.186C110.016 71.3104 109.863 71.2073 109.799 71.0497L109.121 69.3719ZM107.46 66.7503C107.756 66.7503 107.957 66.4518 107.847 66.1778L107.009 64.0912C106.869 63.7425 106.375 63.7425 106.235 64.0912L105.397 66.1778C105.287 66.4518 105.488 66.7503 105.784 66.7503H107.46Z" fill="#252642"/>
<path d="M114.143 60.4081C114.143 60.1777 114.33 59.991 114.56 59.991H116.928C117.159 59.991 117.345 60.1777 117.345 60.4081V68.3546C117.345 68.5849 117.532 68.7716 117.762 68.7716H122.329C122.559 68.7716 122.746 68.9583 122.746 69.1887V70.8934C122.746 71.1237 122.559 71.3104 122.329 71.3104H114.56C114.33 71.3104 114.143 71.1237 114.143 70.8934V60.4081Z" fill="#252642"/>
<path d="M129.548 71.5368C128.351 71.5368 127.273 71.2835 126.314 70.7768C125.365 70.2701 124.616 69.5694 124.066 68.6746C123.527 67.7798 123.257 66.7719 123.257 65.6507C123.257 64.5296 123.527 63.5216 124.066 62.6268C124.616 61.7321 125.365 61.0313 126.314 60.5247C127.273 60.018 128.351 59.7646 129.548 59.7646C130.744 59.7646 131.817 60.018 132.766 60.5247C133.725 61.0313 134.474 61.7321 135.013 62.6268C135.563 63.5216 135.838 64.5296 135.838 65.6507C135.838 66.7719 135.563 67.7798 135.013 68.6746C134.474 69.5694 133.725 70.2701 132.766 70.7768C131.817 71.2835 130.744 71.5368 129.548 71.5368ZM129.548 68.8848C130.119 68.8848 130.636 68.7501 131.1 68.4806C131.564 68.2111 131.93 67.8337 132.2 67.3486C132.469 66.8527 132.604 66.2868 132.604 65.6507C132.604 65.0147 132.469 64.4541 132.2 63.969C131.93 63.4731 131.564 63.0904 131.1 62.8209C130.636 62.5514 130.119 62.4166 129.548 62.4166C128.976 62.4166 128.459 62.5514 127.995 62.8209C127.532 63.0904 127.165 63.4731 126.896 63.969C126.626 64.4541 126.491 65.0147 126.491 65.6507C126.491 66.2868 126.626 66.8527 126.896 67.3486C127.165 67.8337 127.532 68.2111 127.995 68.4806C128.459 68.7501 128.976 68.8848 129.548 68.8848Z" fill="#252642"/>
<path d="M147.867 59.991C148.098 59.991 148.285 60.1777 148.285 60.4081V70.8934C148.285 71.1237 148.098 71.3104 147.867 71.3104H145.845C145.721 71.3104 145.603 71.2551 145.524 71.1594L141.39 66.1699C141.141 65.869 140.652 66.0453 140.652 66.4359V70.8934C140.652 71.1237 140.465 71.3104 140.235 71.3104H137.932C137.702 71.3104 137.515 71.1237 137.515 70.8934V60.4081C137.515 60.1777 137.702 59.991 137.932 59.991H139.955C140.079 59.991 140.197 60.0464 140.276 60.142L144.409 65.1316C144.658 65.4324 145.147 65.2562 145.147 64.8655V60.4081C145.147 60.1777 145.334 59.991 145.564 59.991H147.867Z" fill="#252642"/>
<path d="M159.214 68.8363C159.444 68.8363 159.631 69.023 159.631 69.2533V70.8934C159.631 71.1237 159.444 71.3104 159.214 71.3104H150.96C150.73 71.3104 150.543 71.1237 150.543 70.8934V60.4081C150.543 60.1777 150.73 59.991 150.96 59.991H159.004C159.234 59.991 159.421 60.1777 159.421 60.4081V62.0481C159.421 62.2784 159.234 62.4651 159.004 62.4651H154.129C153.899 62.4651 153.712 62.6518 153.712 62.8822V63.9562C153.712 64.1865 153.899 64.3733 154.129 64.3733H158.324C158.555 64.3733 158.741 64.56 158.741 64.7903V66.3495C158.741 66.5798 158.555 66.7665 158.324 66.7665H154.129C153.899 66.7665 153.712 66.9532 153.712 67.1835V68.4193C153.712 68.6496 153.899 68.8363 154.129 68.8363H159.214Z" fill="#252642"/>
<defs>
<linearGradient id="paint0_linear_2424_620" x1="73.1633" y1="0.0450876" x2="73.1633" y2="51.1751" gradientUnits="userSpaceOnUse">
<stop stop-color="#4AC16A"/>
<stop offset="1" stop-color="#147952"/>
</linearGradient>
<linearGradient id="paint1_linear_2424_620" x1="88.1576" y1="-0.0101316" x2="88.1576" y2="16.1475" gradientUnits="userSpaceOnUse">
<stop stop-color="#4AC16A"/>
<stop offset="1" stop-color="#147952"/>
</linearGradient>
<linearGradient id="paint2_linear_2424_620" x1="57.9113" y1="0.280281" x2="57.9113" y2="39.9819" gradientUnits="userSpaceOnUse">
<stop stop-color="#4AC16A"/>
<stop offset="1" stop-color="#147952"/>
</linearGradient>
<linearGradient id="paint3_linear_2424_620" x1="102.951" y1="-0.0101316" x2="102.951" y2="16.1475" gradientUnits="userSpaceOnUse">
<stop stop-color="#4AC16A"/>
<stop offset="1" stop-color="#147952"/>
</linearGradient>
<linearGradient id="paint4_linear_2424_620" x1="95.7774" y1="18.6628" x2="95.7774" y2="50.9968" gradientUnits="userSpaceOnUse">
<stop stop-color="#4AC16A"/>
<stop offset="1" stop-color="#147952"/>
</linearGradient>
</defs>
</svg>
