<svg xmlns="http://www.w3.org/2000/svg" width="256" height="28" viewBox="0 0 256 28" fill="none">
  <path d="M8.35254 23.129V0.774812C8.35254 0.652795 8.45391 0.553648 8.5759 0.556201C13.255 0.654108 14.6499 3.826 14.7596 5.42432V27.1998C14.7596 27.3773 14.5607 27.4824 14.4141 27.3823L8.44894 23.3115C8.38862 23.2703 8.35254 23.202 8.35254 23.129Z" fill="url(#paint0_linear_1638_8699)"/>
  <path d="M16.3062 5.63553V8.785C16.3062 8.90702 16.4051 9.00474 16.5271 9.00474H22.6027C22.7247 9.00474 22.8236 8.90583 22.8236 8.78381V0.738479C22.8236 0.631706 22.747 0.541322 22.6407 0.531867C22.1261 0.486123 20.5865 0.461021 18.7916 1.49306C16.5823 2.76343 16.3062 4.86227 16.3062 5.63553Z" fill="url(#paint1_linear_1638_8699)"/>
  <path d="M1.26201 4.57591C3.14853 1.26703 5.81071 0.757309 6.58619 0.678788C6.70759 0.666496 6.80608 0.763401 6.80608 0.885417V21.3174C6.80608 21.5174 6.56531 21.6144 6.43088 21.4663C5.52116 20.4642 3.16938 17.7902 1.76098 15.4286C-0.0131227 12.4537 -0.879052 8.33125 1.26201 4.57591Z" fill="url(#paint2_linear_1638_8699)"/>
  <path fill-rule="evenodd" clip-rule="evenodd" d="M30.6668 9.00474C30.7888 9.00474 30.8877 8.90583 30.8877 8.78381V5.63553C30.8877 4.86227 30.5975 2.76343 28.2758 1.49306C26.3802 0.455799 24.7554 0.486404 24.223 0.532562C24.1159 0.541845 24.0388 0.632599 24.0388 0.740083V8.78381C24.0388 8.90583 24.1377 9.00474 24.2598 9.00474H30.6668ZM27.5213 3.97853C27.0725 3.97853 26.7087 4.34233 26.7087 4.79111V5.87236C26.7087 6.32114 27.0725 6.68494 27.5213 6.68494C27.9701 6.68494 28.3339 6.32114 28.3339 5.87236V4.79111C28.3339 4.34233 27.9701 3.97853 27.5213 3.97853Z" fill="url(#paint3_linear_1638_8699)"/>
  <path fill-rule="evenodd" clip-rule="evenodd" d="M16.3062 10.717C16.3062 10.595 16.4051 10.4961 16.5271 10.4961H30.54C30.6682 10.4961 30.7697 10.6033 30.7561 10.7307C30.5464 12.6876 29.3011 17.0506 25.7123 20.6467C22.1993 24.1671 18.3785 26.5524 16.6206 27.4608C16.4758 27.5356 16.3062 27.4291 16.3062 27.2662V20.2789C16.3062 20.2632 16.3077 20.248 16.3112 20.2327C16.5068 19.3703 17.3696 17.6897 19.3117 17.6897H21.1667C21.2887 17.6897 21.3876 17.5908 21.3876 17.4688V16.3501C21.3876 16.2281 21.2887 16.1291 21.1667 16.1291H19.3117C18.3098 16.1477 16.3062 15.8614 16.3062 14.5675V10.717ZM22.4923 16.1291C22.3702 16.1291 22.2713 16.2281 22.2713 16.3501V17.4688C22.2713 17.5908 22.3702 17.6897 22.4923 17.6897H23.486C24.1265 17.761 24.4091 17.4002 24.4091 16.9584C24.4091 16.5165 24.0782 16.1951 23.486 16.1291H22.4923Z" fill="url(#paint4_linear_1638_8699)"/>
  <path d="M53.088 6.38759C53.4018 6.38759 53.6562 6.64201 53.6562 6.95586V21.2438C53.6562 21.5576 53.4018 21.8121 53.088 21.8121H50.3317C50.1625 21.8121 50.0021 21.7366 49.8941 21.6063L44.2616 14.8072C43.922 14.3973 43.2557 14.6374 43.2557 15.1698V21.2438C43.2557 21.5576 43.0013 21.8121 42.6875 21.8121H39.5492C39.2354 21.8121 38.981 21.5576 38.981 21.2438V6.95586C38.981 6.64201 39.2354 6.38759 39.5492 6.38759H42.3055C42.4747 6.38759 42.6351 6.46301 42.7431 6.59333L48.3756 13.3924C48.7152 13.8023 49.3815 13.5622 49.3815 13.0299V6.95586C49.3815 6.64201 49.6359 6.38759 49.9497 6.38759H53.088Z" fill="#252642"/>
  <path d="M68.5491 18.4407C68.863 18.4407 69.1174 18.6951 69.1174 19.009V21.2438C69.1174 21.5576 68.863 21.8121 68.5491 21.8121H57.302C56.9882 21.8121 56.7337 21.5576 56.7337 21.2438V6.95586C56.7337 6.64201 56.9882 6.38759 57.302 6.38759H68.2627C68.5765 6.38759 68.8309 6.64201 68.8309 6.95586V9.19067C68.8309 9.50452 68.5765 9.75894 68.2627 9.75894H61.6209C61.307 9.75894 61.0526 10.0134 61.0526 10.3272V11.7908C61.0526 12.1046 61.307 12.3591 61.6209 12.3591H67.3372C67.651 12.3591 67.9055 12.6135 67.9055 12.9273V15.052C67.9055 15.3658 67.651 15.6202 67.3372 15.6202H61.6209C61.307 15.6202 61.0526 15.8747 61.0526 16.1885V17.8724C61.0526 18.1863 61.307 18.4407 61.6209 18.4407H68.5491Z" fill="#252642"/>
  <path d="M86.1063 6.38759C86.5143 6.38759 86.7893 6.80473 86.6286 7.17971L80.5052 21.4676C80.4157 21.6766 80.2102 21.8121 79.9829 21.8121H76.436C76.2084 21.8121 76.0028 21.6763 75.9134 21.467L69.8104 7.17908C69.6503 6.80418 69.9253 6.38759 70.333 6.38759H73.809C74.0384 6.38759 74.2453 6.52553 74.3335 6.7373L77.8554 15.1897C78.0489 15.6541 78.7059 15.6565 78.9028 15.1936L82.5021 6.73339C82.5914 6.52371 82.7972 6.38759 83.0251 6.38759H86.1063Z" fill="#252642"/>
  <path d="M99.6864 18.4407C100 18.4407 100.255 18.6951 100.255 19.009V21.2438C100.255 21.5576 100 21.8121 99.6864 21.8121H88.4393C88.1255 21.8121 87.871 21.5576 87.871 21.2438V6.95586C87.871 6.64201 88.1255 6.38759 88.4393 6.38759H99.4C99.7138 6.38759 99.9682 6.64201 99.9682 6.95586V9.19067C99.9682 9.50452 99.7138 9.75894 99.4 9.75894H92.7581C92.4443 9.75894 92.1899 10.0134 92.1899 10.3272V11.7908C92.1899 12.1046 92.4443 12.3591 92.7582 12.3591H98.4745C98.7883 12.3591 99.0428 12.6135 99.0428 12.9273V15.052C99.0428 15.3658 98.7883 15.6202 98.4745 15.6202H92.7581C92.4443 15.6202 92.1899 15.8747 92.1899 16.1885V17.8724C92.1899 18.1863 92.4443 18.4407 92.7582 18.4407H99.6864Z" fill="#252642"/>
  <path d="M109.588 17.9614C109.482 17.8063 109.306 17.7136 109.118 17.7136H107.607C107.293 17.7136 107.039 17.968 107.039 18.2818V21.2438C107.039 21.5576 106.784 21.8121 106.47 21.8121H103.244C102.93 21.8121 102.676 21.5576 102.676 21.2438V6.95586C102.676 6.64201 102.93 6.38759 103.244 6.38759H109.727C109.801 6.38759 109.9 6.38956 109.996 6.39206C110.196 6.39726 110.378 6.50999 110.474 6.68583L115.138 15.2332C115.262 15.461 115.216 15.7437 115.02 15.9134C114.786 16.1158 114.455 16.3893 114.125 16.621C113.84 16.8208 113.738 17.2224 113.935 17.5091L116.278 20.9222C116.536 21.2993 116.266 21.8121 115.809 21.8121H112.517C112.329 21.8121 112.154 21.7193 112.048 21.5642L109.588 17.9614ZM112.173 12.0946C112.173 11.3748 111.945 10.8166 111.49 10.42C111.034 10.0234 110.359 9.82504 109.463 9.82504H107.607C107.293 9.82504 107.039 10.0795 107.039 10.3933V13.7739C107.039 14.0878 107.293 14.3422 107.607 14.3422H109.463C110.359 14.3422 111.034 14.1512 111.49 13.7693C111.945 13.3727 112.173 12.8145 112.173 12.0946Z" fill="#252642"/>
  <path d="M128.529 18.4407C128.843 18.4407 129.097 18.6951 129.097 19.009V21.2438C129.097 21.5576 128.843 21.8121 128.529 21.8121H122.449C122.24 21.8121 122.049 21.698 121.949 21.5148L116.783 11.9942C116.737 11.911 116.714 11.8178 116.714 11.7231V6.95586C116.714 6.64201 116.968 6.38759 117.282 6.38759H128.243C128.557 6.38759 128.811 6.64201 128.811 6.95586V9.19067C128.811 9.50452 128.557 9.75894 128.243 9.75894H121.601C121.287 9.75894 121.033 10.0134 121.033 10.3272V11.7908C121.033 12.1046 121.287 12.3591 121.601 12.3591H127.317C127.631 12.3591 127.885 12.6135 127.885 12.9273V15.052C127.885 15.3658 127.631 15.6202 127.317 15.6202H121.601C121.287 15.6202 121.033 15.8747 121.033 16.1885V17.8724C121.033 18.1863 121.287 18.4407 121.601 18.4407H128.529Z" fill="#252642"/>
  <path d="M146.086 6.38759C146.494 6.38759 146.769 6.80473 146.609 7.17971L140.485 21.4676C140.396 21.6766 140.19 21.8121 139.963 21.8121H136.416C136.188 21.8121 135.983 21.6763 135.893 21.467L129.79 7.17908C129.63 6.80418 129.905 6.38759 130.313 6.38759H133.789C134.018 6.38759 134.225 6.52553 134.314 6.7373L137.835 15.1897C138.029 15.6541 138.686 15.6565 138.883 15.1936L142.482 6.73339C142.571 6.52371 142.777 6.38759 143.005 6.38759H146.086Z" fill="#252642"/>
  <path d="M159.666 18.4407C159.98 18.4407 160.235 18.6951 160.235 19.009V21.2438C160.235 21.5576 159.98 21.8121 159.666 21.8121H148.419C148.105 21.8121 147.851 21.5576 147.851 21.2438V6.95586C147.851 6.64201 148.105 6.38759 148.419 6.38759H159.38C159.694 6.38759 159.948 6.64201 159.948 6.95586V9.19067C159.948 9.50452 159.694 9.75894 159.38 9.75894H152.738C152.424 9.75894 152.17 10.0134 152.17 10.3272V11.7908C152.17 12.1046 152.424 12.3591 152.738 12.3591H158.454C158.768 12.3591 159.023 12.6135 159.023 12.9273V15.052C159.023 15.3658 158.768 15.6202 158.454 15.6202H152.738C152.424 15.6202 152.17 15.8747 152.17 16.1885V17.8724C152.17 18.1863 152.424 18.4407 152.738 18.4407H159.666Z" fill="#252642"/>
  <path d="M169.568 17.9614C169.462 17.8063 169.286 17.7136 169.098 17.7136H167.587C167.273 17.7136 167.019 17.968 167.019 18.2818V21.2438C167.019 21.5576 166.764 21.8121 166.45 21.8121H163.224C162.91 21.8121 162.656 21.5576 162.656 21.2438V6.95586C162.656 6.64201 162.91 6.38759 163.224 6.38759H169.707C169.852 6.38759 170.065 6.39525 170.24 6.40291C170.437 6.41145 170.613 6.52289 170.708 6.69504L175.289 15.0471C175.41 15.2677 175.371 15.5412 175.188 15.713C174.92 15.9631 174.51 16.3272 174.103 16.6187C173.82 16.8211 173.718 17.2224 173.915 17.5091L176.258 20.9222C176.516 21.2993 176.246 21.8121 175.789 21.8121H172.497C172.309 21.8121 172.134 21.7193 172.028 21.5642L169.568 17.9614ZM172.153 12.0946C172.153 11.3748 171.925 10.8166 171.47 10.42C171.014 10.0234 170.339 9.82504 169.443 9.82504H167.587C167.273 9.82504 167.019 10.0795 167.019 10.3933V13.7739C167.019 14.0878 167.273 14.3422 167.587 14.3422H169.443C170.339 14.3422 171.014 14.1512 171.47 13.7693C171.925 13.3727 172.153 12.8145 172.153 12.0946Z" fill="#252642"/>
  <path d="M187.172 19.1705C187.085 18.9558 186.876 18.8153 186.645 18.8153H181.124C180.915 18.8153 180.723 18.7005 180.624 18.5163L178.379 14.3445C178.296 14.1901 178.289 14.006 178.359 13.8457L181.502 6.72638C181.593 6.52045 181.797 6.38759 182.022 6.38759H185.579C185.803 6.38759 186.007 6.52016 186.098 6.72575L192.426 21.0137C192.592 21.3894 192.317 21.8121 191.906 21.8121H188.623C188.392 21.8121 188.183 21.6715 188.096 21.4568L187.172 19.1705ZM184.909 15.5982C185.312 15.5982 185.587 15.1915 185.437 14.8181L184.294 11.9748C184.103 11.4995 183.431 11.4995 183.24 11.9748L182.097 14.8181C181.947 15.1915 182.222 15.5982 182.625 15.5982H184.909Z" fill="#252642"/>
  <path d="M194.016 6.95586C194.016 6.64201 194.271 6.38759 194.584 6.38759H197.811C198.125 6.38759 198.379 6.64201 198.379 6.95586V17.7843C198.379 18.0982 198.633 18.3526 198.947 18.3526H205.17C205.484 18.3526 205.739 18.607 205.739 18.9208V21.2438C205.739 21.5576 205.484 21.8121 205.17 21.8121H194.584C194.271 21.8121 194.016 21.5576 194.016 21.2438V6.95586Z" fill="#252642"/>
  <path d="M215.007 22.1206C213.376 22.1206 211.907 21.7753 210.6 21.0849C209.307 20.3945 208.286 19.4396 207.537 18.2204C206.802 17.0011 206.435 15.6276 206.435 14.0998C206.435 12.5721 206.802 11.1986 207.537 9.97929C208.286 8.76002 209.307 7.80517 210.6 7.11474C211.907 6.42432 213.376 6.0791 215.007 6.0791C216.637 6.0791 218.099 6.42432 219.392 7.11474C220.699 7.80517 221.72 8.76002 222.455 9.97929C223.204 11.1986 223.578 12.5721 223.578 14.0998C223.578 15.6276 223.204 17.0011 222.455 18.2204C221.72 19.4396 220.699 20.3945 219.392 21.0849C218.099 21.7753 216.637 22.1206 215.007 22.1206ZM215.007 18.5068C215.785 18.5068 216.49 18.3232 217.122 17.9559C217.754 17.5887 218.253 17.0745 218.621 16.4135C218.988 15.7378 219.171 14.9665 219.171 14.0998C219.171 13.2331 218.988 12.4692 218.621 11.8082C218.253 11.1325 217.754 10.611 217.122 10.2437C216.49 9.87646 215.785 9.69284 215.007 9.69284C214.228 9.69284 213.523 9.87646 212.891 10.2437C212.26 10.611 211.76 11.1325 211.393 11.8082C211.026 12.4692 210.842 13.2331 210.842 14.0998C210.842 14.9665 211.026 15.7378 211.393 16.4135C211.76 17.0745 212.26 17.5887 212.891 17.9559C213.523 18.3232 214.228 18.5068 215.007 18.5068Z" fill="#252642"/>
  <path d="M239.971 6.38759C240.284 6.38759 240.539 6.64201 240.539 6.95586V21.2438C240.539 21.5576 240.284 21.8121 239.971 21.8121H237.214C237.045 21.8121 236.885 21.7366 236.777 21.6063L231.144 14.8072C230.805 14.3973 230.138 14.6374 230.138 15.1698V21.2438C230.138 21.5576 229.884 21.8121 229.57 21.8121H226.432C226.118 21.8121 225.864 21.5576 225.864 21.2438V6.95586C225.864 6.64201 226.118 6.38759 226.432 6.38759H229.188C229.357 6.38759 229.518 6.46301 229.626 6.59333L235.258 13.3924C235.598 13.8023 236.264 13.5622 236.264 13.0299V6.95586C236.264 6.64201 236.518 6.38759 236.832 6.38759H239.971Z" fill="#252642"/>
  <path d="M255.432 18.4407C255.746 18.4407 256 18.6951 256 19.009V21.2438C256 21.5576 255.746 21.8121 255.432 21.8121H244.185C243.871 21.8121 243.616 21.5576 243.616 21.2438V6.95586C243.616 6.64201 243.871 6.38759 244.185 6.38759H255.145C255.459 6.38759 255.713 6.64201 255.713 6.95586V9.19067C255.713 9.50452 255.459 9.75894 255.145 9.75894H248.503C248.19 9.75894 247.935 10.0134 247.935 10.3272V11.7908C247.935 12.1046 248.19 12.3591 248.503 12.3591H254.22C254.534 12.3591 254.788 12.6135 254.788 12.9273V15.052C254.788 15.3658 254.534 15.6202 254.22 15.6202H248.503C248.19 15.6202 247.935 15.8747 247.935 16.1885V17.8724C247.935 18.1863 248.19 18.4407 248.503 18.4407H255.432Z" fill="#252642"/>
  <defs>
    <linearGradient id="paint0_linear_1638_8699" x1="11.6399" y1="0.539025" x2="11.6399" y2="27.8538" gradientUnits="userSpaceOnUse">
      <stop stop-color="#4AC16A"/>
      <stop offset="1" stop-color="#147952"/>
    </linearGradient>
    <linearGradient id="paint1_linear_1638_8699" x1="19.6502" y1="0.509724" x2="19.6502" y2="9.14146" gradientUnits="userSpaceOnUse">
      <stop stop-color="#4AC16A"/>
      <stop offset="1" stop-color="#147952"/>
    </linearGradient>
    <linearGradient id="paint2_linear_1638_8699" x1="3.49211" y1="0.664435" x2="3.49211" y2="21.8739" gradientUnits="userSpaceOnUse">
      <stop stop-color="#4AC16A"/>
      <stop offset="1" stop-color="#147952"/>
    </linearGradient>
    <linearGradient id="paint3_linear_1638_8699" x1="27.5529" y1="0.509724" x2="27.5529" y2="9.14146" gradientUnits="userSpaceOnUse">
      <stop stop-color="#4AC16A"/>
      <stop offset="1" stop-color="#147952"/>
    </linearGradient>
    <linearGradient id="paint4_linear_1638_8699" x1="23.7209" y1="10.4853" x2="23.7209" y2="27.7587" gradientUnits="userSpaceOnUse">
      <stop stop-color="#4AC16A"/>
      <stop offset="1" stop-color="#147952"/>
    </linearGradient>
  </defs>
</svg>